<?xml version="1.0" encoding="UTF-8"?>
<svg version="1.1" xmlns="http://www.w3.org/2000/svg" width="512" height="512">
<path d="M0 0 C1.14483856 -0.0127597 2.28967712 -0.02551941 3.46920776 -0.03866577 C5.32547287 -0.04200424 5.32547287 -0.04200424 7.21923828 -0.04541016 C9.12613937 -0.05539536 9.12613937 -0.05539536 11.07156372 -0.06558228 C13.76334614 -0.0757172 16.4547248 -0.08126322 19.14648438 -0.08007812 C22.58884624 -0.07987505 26.03038144 -0.10716384 29.47254753 -0.14162254 C32.76307998 -0.1692652 36.05360548 -0.16804154 39.34423828 -0.17041016 C41.19443069 -0.19196671 41.19443069 -0.19196671 43.08200073 -0.21395874 C44.23314362 -0.20780548 45.3842865 -0.20165222 46.5703125 -0.1953125 C48.08563065 -0.19958755 48.08563065 -0.19958755 49.63156128 -0.20394897 C53.18586264 0.42757258 54.82678242 1.82025297 57.41455078 4.29052734 C59.71211 7.73686617 59.65099054 9.00121126 59.60986328 13.05224609 C59.60341797 14.17050781 59.59697266 15.28876953 59.59033203 16.44091797 C59.56519531 18.19178711 59.56519531 18.19178711 59.53955078 19.97802734 C59.53052734 21.156875 59.52150391 22.33572266 59.51220703 23.55029297 C59.48861596 26.46379077 59.45274464 29.37718439 59.41455078 32.29052734 C64.69455078 32.29052734 69.97455078 32.29052734 75.41455078 32.29052734 C75.36814453 30.54384766 75.32173828 28.79716797 75.27392578 26.99755859 C75.2364048 24.69939861 75.200005 22.40122014 75.16455078 20.10302734 C75.13103516 18.95253906 75.09751953 17.80205078 75.06298828 16.61669922 C75.04365234 14.94897461 75.04365234 14.94897461 75.02392578 13.24755859 C74.99250488 11.71578979 74.99250488 11.71578979 74.96044922 10.15307617 C75.53688406 6.5193673 76.89064377 4.91897994 79.41455078 2.29052734 C82.80694296 0.02893256 84.01864917 0.03009278 88 0 C89.14483856 -0.0127597 90.28967712 -0.02551941 91.46920776 -0.03866577 C92.70671783 -0.04089142 93.94422791 -0.04311707 95.21923828 -0.04541016 C97.12613937 -0.05539536 97.12613937 -0.05539536 99.07156372 -0.06558228 C101.76334614 -0.0757172 104.4547248 -0.08126322 107.14648438 -0.08007812 C110.58884624 -0.07987505 114.03038144 -0.10716384 117.47254753 -0.14162254 C120.76307998 -0.1692652 124.05360548 -0.16804154 127.34423828 -0.17041016 C129.19443069 -0.19196671 129.19443069 -0.19196671 131.08200073 -0.21395874 C132.23314362 -0.20780548 133.3842865 -0.20165222 134.5703125 -0.1953125 C136.08563065 -0.19958755 136.08563065 -0.19958755 137.63156128 -0.20394897 C141.18586264 0.42757258 142.82678242 1.82025297 145.41455078 4.29052734 C147.71211 7.73686617 147.65099054 9.00121126 147.60986328 13.05224609 C147.60019531 14.72963867 147.60019531 14.72963867 147.59033203 16.44091797 C147.56519531 18.19178711 147.56519531 18.19178711 147.53955078 19.97802734 C147.53052734 21.156875 147.52150391 22.33572266 147.51220703 23.55029297 C147.48861596 26.46379077 147.45274464 29.37718439 147.41455078 32.29052734 C155.33455078 32.29052734 163.25455078 32.29052734 171.41455078 32.29052734 C171.36814453 30.54384766 171.32173828 28.79716797 171.27392578 26.99755859 C171.2364048 24.69939861 171.200005 22.40122014 171.16455078 20.10302734 C171.13103516 18.95253906 171.09751953 17.80205078 171.06298828 16.61669922 C171.05009766 15.50488281 171.03720703 14.39306641 171.02392578 13.24755859 C171.00297852 12.22637939 170.98203125 11.2052002 170.96044922 10.15307617 C171.53688406 6.5193673 172.89064377 4.91897994 175.41455078 2.29052734 C178.80694296 0.02893256 180.01864917 0.03009278 184 0 C185.14483856 -0.0127597 186.28967712 -0.02551941 187.46920776 -0.03866577 C188.70671783 -0.04089142 189.94422791 -0.04311707 191.21923828 -0.04541016 C193.12613937 -0.05539536 193.12613937 -0.05539536 195.07156372 -0.06558228 C197.76334614 -0.0757172 200.4547248 -0.08126322 203.14648438 -0.08007812 C206.58884624 -0.07987505 210.03038144 -0.10716384 213.47254753 -0.14162254 C216.76307998 -0.1692652 220.05360548 -0.16804154 223.34423828 -0.17041016 C225.19443069 -0.19196671 225.19443069 -0.19196671 227.08200073 -0.21395874 C228.23314362 -0.20780548 229.3842865 -0.20165222 230.5703125 -0.1953125 C231.5805246 -0.19816254 232.59073669 -0.20101257 233.63156128 -0.20394897 C237.18586264 0.42757258 238.82678242 1.82025297 241.41455078 4.29052734 C243.71211 7.73686617 243.65099054 9.00121126 243.60986328 13.05224609 C243.60341797 14.17050781 243.59697266 15.28876953 243.59033203 16.44091797 C243.57357422 17.60816406 243.55681641 18.77541016 243.53955078 19.97802734 C243.53052734 21.156875 243.52150391 22.33572266 243.51220703 23.55029297 C243.48861501 26.46390761 243.45569618 29.37711626 243.41455078 32.29052734 C244.0495752 32.26958008 244.68459961 32.24863281 245.33886719 32.22705078 C248.23893154 32.14348154 251.13874194 32.09173961 254.03955078 32.04052734 C255.03857422 32.00701172 256.03759766 31.97349609 257.06689453 31.93896484 C263.02580441 31.86003889 266.8457069 32.04501703 271.41455078 36.29052734 C276.13888342 41.72355056 275.98600398 46.51390598 275.93212891 53.52490234 C275.94264282 55.20888123 275.94264282 55.20888123 275.95336914 56.92687988 C275.97095022 60.63168188 275.95932512 64.3357178 275.94580078 68.04052734 C275.94849564 70.61832831 275.95237801 73.19612829 275.95739746 75.77392578 C275.96329271 81.17409897 275.95511104 86.57398514 275.93603516 91.97412109 C275.91426789 98.20794617 275.92131994 104.44124787 275.94334078 110.67506027 C275.96371379 116.68404083 275.96151452 122.69276635 275.94981384 128.70178223 C275.94714629 131.25345941 275.95041726 133.80514995 275.95973206 136.35681152 C275.96989527 139.92361792 275.95439778 143.48942066 275.93212891 147.05615234 C275.94022583 148.10984009 275.94832275 149.16352783 275.95666504 150.24914551 C275.88927066 156.07851898 275.53271112 159.8116444 271.41455078 164.29052734 C265.80646393 169.31833112 260.32173325 168.85366844 253.04052734 168.79846191 C251.78190006 168.80470188 250.52327278 168.81094184 249.22650528 168.81737089 C245.7398147 168.83405493 242.25356257 168.82582241 238.7668705 168.81342602 C235.00401477 168.80437393 231.24123432 168.81834602 227.47839355 168.8293457 C220.10971859 168.84713387 212.74120657 168.84328966 205.37252522 168.83169514 C199.38395665 168.82266225 193.39543377 168.82143619 187.40686035 168.82579041 C186.55459437 168.82640334 185.70232838 168.82701627 184.82423615 168.82764778 C183.09288373 168.82892667 181.36153132 168.83022353 179.63017893 168.83153814 C163.39459014 168.84294481 147.15909168 168.82982888 130.9235177 168.80833668 C116.99209807 168.79046561 103.06081176 168.79356969 89.12939453 168.81201172 C72.95197733 168.83341691 56.77463931 168.84184616 40.59720993 168.82956266 C38.87222037 168.82828847 37.1472308 168.82703098 35.42224121 168.82579041 C34.57350945 168.8251733 33.72477768 168.8245562 32.85032678 168.8239204 C26.86882645 168.82046644 20.88737634 168.82629682 14.90588379 168.83570862 C7.61658657 168.84692608 0.32746164 168.84389395 -6.96181583 168.82258564 C-10.68108669 168.81207172 -14.40007025 168.80795897 -18.11933899 168.82118225 C-22.15028481 168.83529693 -26.18050498 168.81844622 -30.21142578 168.79846191 C-31.38826809 168.8073848 -32.5651104 168.81630769 -33.77761459 168.82550097 C-40.02591548 168.76521604 -43.85915694 168.52777808 -48.58544922 164.29052734 C-53.46052548 158.98842784 -53.15552007 153.88725744 -53.10302734 147.05615234 C-53.11003662 145.93349976 -53.1170459 144.81084717 -53.12426758 143.6541748 C-53.14184866 139.94937281 -53.13022356 136.24533689 -53.11669922 132.54052734 C-53.11939408 129.96272637 -53.12327644 127.3849264 -53.1282959 124.80712891 C-53.13419115 119.40695571 -53.12600948 114.00706954 -53.10693359 108.60693359 C-53.08516632 102.37310852 -53.09221838 96.13980682 -53.11423922 89.90599442 C-53.13461223 83.89701386 -53.13241296 77.88828834 -53.12071228 71.87927246 C-53.11804473 69.32759528 -53.1213157 66.77590474 -53.13063049 64.22424316 C-53.14079371 60.65743677 -53.12529622 57.09163403 -53.10302734 53.52490234 C-53.11112427 52.4712146 -53.11922119 51.41752686 -53.12756348 50.33190918 C-53.05813657 44.32672973 -52.59090933 40.86032397 -48.58544922 36.29052734 C-44.15876347 32.57861911 -41.16230397 31.8020341 -35.43701172 31.89990234 C-34.77962006 31.90556213 -34.12222839 31.91122192 -33.44491577 31.91705322 C-31.36598731 31.93926459 -29.28884759 31.98942314 -27.21044922 32.04052734 C-25.79250554 32.06061245 -24.37453457 32.07885969 -22.95654297 32.09521484 C-19.49894045 32.13907668 -16.04236971 32.20799297 -12.58544922 32.29052734 C-12.60639648 31.55938721 -12.62734375 30.82824707 -12.64892578 30.07495117 C-12.73225236 26.75111734 -12.78416253 23.42750351 -12.83544922 20.10302734 C-12.86896484 18.95253906 -12.90248047 17.80205078 -12.93701172 16.61669922 C-12.94990234 15.50488281 -12.96279297 14.39306641 -12.97607422 13.24755859 C-12.99702148 12.22637939 -13.01796875 11.2052002 -13.03955078 10.15307617 C-12.46311594 6.5193673 -11.10935623 4.91897994 -8.58544922 2.29052734 C-5.19305704 0.02893256 -3.98135083 0.03009278 0 0 Z " fill="#2BBBE9" transform="translate(52.58544921875,199.70947265625)"/>
<path d="M0 0 C3.4845419 1.32643338 6.53253696 3.15161239 9.6875 5.125 C11.01587891 5.92176147 11.01587891 5.92176147 12.37109375 6.73461914 C14.26406621 7.87393872 16.15114855 9.02309271 18.03271484 10.18115234 C21.10465108 12.06414765 24.19934453 13.90433428 27.30078125 15.73828125 C29.36795982 16.97005897 31.43438466 18.20310263 33.5 19.4375 C34.47283936 20.01580566 35.44567871 20.59411133 36.44799805 21.18994141 C47.42516636 27.85033272 47.42516636 27.85033272 50 33 C51.19308258 41.23747449 48.68691695 46.68109598 44.5 53.625 C43.97535156 54.53378906 43.45070313 55.44257812 42.91015625 56.37890625 C41.62549699 58.59786316 40.32242648 60.80341636 39 63 C41.1217363 64.33878572 43.24705188 65.67115476 45.375 67 C45.97828125 67.3815625 46.5815625 67.763125 47.203125 68.15625 C50.36116713 70.29684569 50.36116713 70.29684569 54 71 C54.27150879 70.48091064 54.54301758 69.96182129 54.82275391 69.42700195 C56.07678365 67.04816644 57.35062766 64.6804956 58.625 62.3125 C59.05167969 61.49587891 59.47835937 60.67925781 59.91796875 59.83789062 C62.67099878 54.76327557 64.95235503 50.94346043 70 48 C77.75352416 46.37001202 83.23571689 49.08949508 89.6875 53.125 C91.01587891 53.92176147 91.01587891 53.92176147 92.37109375 54.73461914 C94.26406621 55.87393872 96.15114855 57.02309271 98.03271484 58.18115234 C101.10465108 60.06414765 104.19934453 61.90433428 107.30078125 63.73828125 C109.36795982 64.97005897 111.43438466 66.20310263 113.5 67.4375 C114.47283936 68.01580566 115.44567871 68.59411133 116.44799805 69.18994141 C127.42516636 75.85033272 127.42516636 75.85033272 130 81 C131.05090148 88.85736514 129.07098189 94.01240509 125 100.625 C124.52304687 101.43839844 124.04609375 102.25179687 123.5546875 103.08984375 C122.38859303 105.07220435 121.20418804 107.04063234 120 109 C122.96213574 111.30465234 126.02152757 113.27590448 129.25 115.1875 C130.14203125 115.71730469 131.0340625 116.24710937 131.953125 116.79296875 C132.62859375 117.19128906 133.3040625 117.58960937 134 118 C134.27150879 117.51120361 134.54301758 117.02240723 134.82275391 116.51879883 C136.07777598 114.27617052 137.35114638 112.04448135 138.625 109.8125 C139.05167969 109.04357422 139.47835938 108.27464844 139.91796875 107.48242188 C142.72318121 102.60470171 145.10750966 98.89946874 150 96 C157.36848052 94.19205842 162.78753863 96.97192475 169.06030273 100.67431641 C170.13352783 101.33866699 171.20675293 102.00301758 172.3125 102.6875 C173.43664307 103.36216309 174.56078613 104.03682617 175.71899414 104.73193359 C178.0300038 106.1198987 180.33210524 107.52114782 182.62792969 108.93408203 C185.82129347 110.89051443 189.03474154 112.80786868 192.2578125 114.71484375 C194.15205852 115.8498672 196.04534179 116.98649944 197.9375 118.125 C198.81253174 118.64408936 199.68756348 119.16317871 200.58911133 119.69799805 C205.63404348 122.79608244 208.98185544 125.19061559 210.57421875 131.1484375 C210.96610645 138.85105789 207.6036144 144.32192253 203.84765625 150.77734375 C201.93363992 153.86987557 201.93363992 153.86987557 201 157 C201.73089844 157.27328125 202.46179688 157.5465625 203.21484375 157.828125 C209.68606518 160.55093907 216.1343364 164.39651432 219 171 C220.92817719 178.25978123 218.51904571 183.76909974 215 190 C213.58200724 192.43084473 212.13639027 194.8420849 210.67333984 197.24609375 C208.85816068 200.23343267 207.07720155 203.23945913 205.30078125 206.25 C203.28712452 209.66078585 201.27218016 213.07070053 199.24487305 216.47338867 C194.53374637 224.38184623 189.90033713 232.33165576 185.3125 240.3125 C184.07946446 242.44793825 182.84639197 244.58335516 181.61328125 246.71875 C179.19268639 250.91488215 176.79861704 255.12484653 174.41796875 259.34375 C173.27911324 261.33360092 172.13981099 263.32319624 171 265.3125 C170.49637939 266.2197583 169.99275879 267.1270166 169.47387695 268.06176758 C166.31605872 273.52844943 163.54677796 276.88778069 158 280 C152.15598776 281.51167369 147.08326791 280.37326919 141.93359375 277.39453125 C140.97662598 276.85030518 140.0196582 276.3060791 139.03369141 275.74536133 C138.03257324 275.16939209 137.03145508 274.59342285 136 274 C133.95636979 272.87147479 131.91074632 271.74655265 129.86328125 270.625 C117.79689089 263.95663502 105.80707794 257.18792882 93.92114258 250.20117188 C86.83058469 246.04215763 79.68302526 241.99694311 72.5 238 C63.27065229 232.86374835 54.12762875 227.59787376 45.01953125 222.25 C37.8947181 218.07756041 30.71453859 214.01504756 23.5 210 C14.27068598 204.86368611 5.12763027 199.59787465 -3.98046875 194.25 C-11.1052819 190.07756041 -18.28546141 186.01504756 -25.5 182 C-34.72931402 176.86368611 -43.87236973 171.59787465 -52.98046875 166.25 C-60.10531416 162.07754151 -67.28619064 158.01639774 -74.5 154 C-78.66891249 151.67066118 -82.83524456 149.33676272 -87 147 C-88.10666016 146.37996094 -89.21332031 145.75992188 -90.35351562 145.12109375 C-93.66003135 143.26058172 -96.95612725 141.3827865 -100.25 139.5 C-101.25611328 138.93667969 -102.26222656 138.37335938 -103.29882812 137.79296875 C-109.24115532 134.37051501 -113.85653437 131.28693126 -117 125 C-119.3400314 114.74455804 -113.7617562 107.11492904 -108.67333984 98.75390625 C-106.85816068 95.76656733 -105.07720155 92.76054087 -103.30078125 89.75 C-101.28712452 86.33921415 -99.27218016 82.92929947 -97.24487305 79.52661133 C-92.53375148 71.61816236 -87.89969552 63.66870713 -83.3125 55.6875 C-82.08223366 53.55326872 -80.85176718 51.41915281 -79.62109375 49.28515625 C-77.79788523 46.12338957 -75.97726825 42.96027538 -74.16455078 39.79248047 C-72.41071008 36.73115412 -70.64425855 33.67743471 -68.875 30.625 C-68.35462158 29.70936279 -67.83424316 28.79372559 -67.2980957 27.8503418 C-64.26096285 22.64148766 -61.53940342 18.76970171 -56 16 C-47.05054761 14.75307454 -41.47205482 17.33886104 -34 22 C-32.78010859 22.64291574 -31.55276975 23.27233371 -30.3125 23.875 C-29.549375 24.24625 -28.78625 24.6175 -28 25 C-27.01 23.4221875 -27.01 23.4221875 -26 21.8125 C-25.54625 21.09191406 -25.0925 20.37132813 -24.625 19.62890625 C-23.41495509 17.67130956 -22.23161622 15.69715573 -21.0625 13.71484375 C-20.7221875 13.14338623 -20.381875 12.57192871 -20.03125 11.9831543 C-19.03570664 10.31000982 -18.04893504 8.63165559 -17.0625 6.953125 C-12.34540218 0.19909857 -8.03026985 -1.37611037 0 0 Z " fill="#F77DA0" transform="translate(293,0)"/>
<path d="M0 0 C1.14483856 -0.0127597 2.28967712 -0.02551941 3.46920776 -0.03866577 C4.70671783 -0.04089142 5.94422791 -0.04311707 7.21923828 -0.04541016 C9.12613937 -0.05539536 9.12613937 -0.05539536 11.07156372 -0.06558228 C13.76334614 -0.0757172 16.4547248 -0.08126322 19.14648438 -0.08007812 C22.58884624 -0.07987505 26.03038144 -0.10716384 29.47254753 -0.14162254 C32.76307998 -0.1692652 36.05360548 -0.16804154 39.34423828 -0.17041016 C41.19443069 -0.19196671 41.19443069 -0.19196671 43.08200073 -0.21395874 C44.23314362 -0.20780548 45.3842865 -0.20165222 46.5703125 -0.1953125 C47.5805246 -0.19816254 48.59073669 -0.20101257 49.63156128 -0.20394897 C53.18586264 0.42757258 54.82678242 1.82025297 57.41455078 4.29052734 C59.71211 7.73686617 59.65099054 9.00121126 59.60986328 13.05224609 C59.60341797 14.17050781 59.59697266 15.28876953 59.59033203 16.44091797 C59.57357422 17.60816406 59.55681641 18.77541016 59.53955078 19.97802734 C59.53052734 21.156875 59.52150391 22.33572266 59.51220703 23.55029297 C59.48861501 26.46390761 59.45569618 29.37711626 59.41455078 32.29052734 C60.0495752 32.26958008 60.68459961 32.24863281 61.33886719 32.22705078 C64.23893154 32.14348154 67.13874194 32.09173961 70.03955078 32.04052734 C71.03857422 32.00701172 72.03759766 31.97349609 73.06689453 31.93896484 C79.02580441 31.86003889 82.8457069 32.04501703 87.41455078 36.29052734 C92.13888342 41.72355056 91.98600398 46.51390598 91.93212891 53.52490234 C91.94264282 55.20888123 91.94264282 55.20888123 91.95336914 56.92687988 C91.97095022 60.63168188 91.95932512 64.3357178 91.94580078 68.04052734 C91.94849564 70.61832831 91.95237801 73.19612829 91.95739746 75.77392578 C91.96329271 81.17409897 91.95511104 86.57398514 91.93603516 91.97412109 C91.91426789 98.20794617 91.92131994 104.44124787 91.94334078 110.67506027 C91.96371379 116.68404083 91.96151452 122.69276635 91.94981384 128.70178223 C91.94714629 131.25345941 91.95041726 133.80514995 91.95973206 136.35681152 C91.96989527 139.92361792 91.95439778 143.48942066 91.93212891 147.05615234 C91.94022583 148.10984009 91.94832275 149.16352783 91.95666504 150.24914551 C91.88927066 156.07851898 91.53271112 159.8116444 87.41455078 164.29052734 C81.80646393 169.31833112 76.32173325 168.85366844 69.04052734 168.79846191 C67.78190006 168.80470188 66.52327278 168.81094184 65.22650528 168.81737089 C61.7398147 168.83405493 58.25356257 168.82582241 54.7668705 168.81342602 C51.00401477 168.80437393 47.24123432 168.81834602 43.47839355 168.8293457 C36.10971859 168.84713387 28.74120657 168.84328966 21.37252522 168.83169514 C15.38395665 168.82266225 9.39543377 168.82143619 3.40686035 168.82579041 C2.55459437 168.82640334 1.70232838 168.82701627 0.82423615 168.82764778 C-0.90711627 168.82892667 -2.63846868 168.83022353 -4.36982107 168.83153814 C-20.60540986 168.84294481 -36.84090832 168.82982888 -53.0764823 168.80833668 C-67.00790193 168.79046561 -80.93918824 168.79356969 -94.87060547 168.81201172 C-111.04802267 168.83341691 -127.22536069 168.84184616 -143.40279007 168.82956266 C-145.12777963 168.82828847 -146.8527692 168.82703098 -148.57775879 168.82579041 C-149.42649055 168.8251733 -150.27522232 168.8245562 -151.14967322 168.8239204 C-157.13117355 168.82046644 -163.11262366 168.82629682 -169.09411621 168.83570862 C-176.38341343 168.84692608 -183.67253836 168.84389395 -190.96181583 168.82258564 C-194.68108669 168.81207172 -198.40007025 168.80795897 -202.11933899 168.82118225 C-206.15028481 168.83529693 -210.18050498 168.81844622 -214.21142578 168.79846191 C-215.38826809 168.8073848 -216.5651104 168.81630769 -217.77761459 168.82550097 C-224.02591548 168.76521604 -227.85915694 168.52777808 -232.58544922 164.29052734 C-237.46052548 158.98842784 -237.15552007 153.88725744 -237.10302734 147.05615234 C-237.11003662 145.93349976 -237.1170459 144.81084717 -237.12426758 143.6541748 C-237.14184866 139.94937281 -237.13022356 136.24533689 -237.11669922 132.54052734 C-237.11939408 129.96272637 -237.12327644 127.3849264 -237.1282959 124.80712891 C-237.13419115 119.40695571 -237.12600948 114.00706954 -237.10693359 108.60693359 C-237.08516632 102.37310852 -237.09221838 96.13980682 -237.11423922 89.90599442 C-237.13461223 83.89701386 -237.13241296 77.88828834 -237.12071228 71.87927246 C-237.11804473 69.32759528 -237.1213157 66.77590474 -237.13063049 64.22424316 C-237.14079371 60.65743677 -237.12529622 57.09163403 -237.10302734 53.52490234 C-237.11112427 52.4712146 -237.11922119 51.41752686 -237.12756348 50.33190918 C-237.06016909 44.5025357 -236.70360956 40.76941029 -232.58544922 36.29052734 C-227.55062117 32.1571866 -223.97449867 31.72039531 -217.73965454 31.80950928 C-216.86064779 31.80609158 -215.98164103 31.80267388 -215.07599771 31.79915261 C-212.13691966 31.79257525 -209.19875923 31.81454752 -206.25976562 31.83642578 C-204.15053326 31.83755429 -202.04129932 31.83692033 -199.93206787 31.83465576 C-194.20932749 31.83350782 -188.48692228 31.85703039 -182.76425982 31.88495159 C-176.78250355 31.90995175 -170.80073966 31.91230616 -164.81893921 31.91705322 C-153.49303856 31.92948704 -142.16729229 31.96231428 -130.84145963 32.00245118 C-117.94678712 32.04715614 -105.05210724 32.06915275 -92.15737653 32.08923292 C-65.63331516 32.13104643 -39.10939084 32.20140652 -12.58544922 32.29052734 C-12.60639648 31.55938721 -12.62734375 30.82824707 -12.64892578 30.07495117 C-12.73225236 26.75111734 -12.78416253 23.42750351 -12.83544922 20.10302734 C-12.86896484 18.95253906 -12.90248047 17.80205078 -12.93701172 16.61669922 C-12.94990234 15.50488281 -12.96279297 14.39306641 -12.97607422 13.24755859 C-12.99702148 12.22637939 -13.01796875 11.2052002 -13.03955078 10.15307617 C-12.46311594 6.5193673 -11.10935623 4.91897994 -8.58544922 2.29052734 C-5.19305704 0.02893256 -3.98135083 0.03009278 0 0 Z " fill="#FEDA4F" transform="translate(420.58544921875,343.70947265625)"/>
<path d="M0 0 C1.24219299 -0.00571014 2.48438599 -0.01142029 3.76422119 -0.01730347 C5.14327993 -0.0185488 6.52233878 -0.0196739 7.90139771 -0.02069092 C9.35183844 -0.02531956 10.80227796 -0.03034428 12.25271606 -0.03573608 C16.19489671 -0.04885676 20.13706033 -0.05530426 24.0792594 -0.05974674 C26.54187722 -0.0626777 29.00449039 -0.06678253 31.46710587 -0.07125092 C39.17126789 -0.0849243 46.87541927 -0.09459202 54.57959259 -0.09845281 C63.47461911 -0.10293483 72.36949206 -0.12049001 81.26447189 -0.1494534 C88.13929144 -0.17106238 95.01406775 -0.18115665 101.8889209 -0.18249393 C105.99543353 -0.18354242 110.10180177 -0.18945971 114.20827866 -0.20731354 C118.07098191 -0.22378097 121.93343201 -0.2259563 125.79615784 -0.21717453 C127.2131175 -0.21640347 128.6300907 -0.22075605 130.04701614 -0.23063278 C131.98280019 -0.24333399 133.91868575 -0.2356904 135.85449219 -0.22705078 C136.93738966 -0.22851734 138.02028713 -0.2299839 139.13599968 -0.2314949 C144.2979453 0.42640988 147.69765515 3.30435665 151.05422974 7.14044189 C152.01798539 10.03170886 152.18410549 11.86575203 152.19467163 14.87136841 C152.20038177 15.84430847 152.20609192 16.81724854 152.2119751 17.81967163 C152.21365189 19.41873856 152.21365189 19.41873856 152.21536255 21.05010986 C152.22032745 22.17393066 152.22529236 23.29775146 152.23040771 24.45562744 C152.24503861 28.18130094 152.25183255 31.90693187 152.25735474 35.63262939 C152.26310497 38.21711224 152.26886271 40.80159507 152.27462769 43.38607788 C152.28379584 48.11495878 152.29009539 52.84382261 152.29312444 57.57271087 C152.29760546 64.52981861 152.31515708 71.48672991 152.34412503 78.44377792 C152.36835495 84.47245124 152.37606914 90.50103169 152.37779999 96.52975845 C152.38083069 99.09343663 152.38887319 101.6571139 152.40198517 104.22076035 C152.41900826 107.80465399 152.41717438 111.38806737 152.41067505 114.97198486 C152.41988983 116.03398102 152.42910461 117.09597717 152.43859863 118.19015503 C152.40066818 124.85507781 151.5479878 128.33496408 147.05422974 133.39044189 C143.607443 136.40638029 140.50710974 136.26879251 136.10845947 136.28088379 C134.24516998 136.28944901 134.24516998 136.28944901 132.34423828 136.29818726 C130.96517954 136.29943259 129.58612069 136.30055769 128.20706177 136.30157471 C126.75662103 136.30620335 125.30618151 136.31122807 123.85574341 136.31661987 C119.91356276 136.32974054 115.97139915 136.33618805 112.02920008 136.34063053 C109.56658225 136.34356149 107.10396909 136.34766632 104.64135361 136.3521347 C96.93719159 136.36580809 89.2330402 136.37547581 81.52886689 136.3793366 C72.63384036 136.38381862 63.73896741 136.4013738 54.84398758 136.43033719 C47.96916804 136.45194617 41.09439172 136.46204044 34.21953857 136.46337771 C30.11302594 136.46442621 26.00665771 136.4703435 21.90018082 136.48819733 C18.03747757 136.50466476 14.17502746 136.50684009 10.31230164 136.49805832 C8.89534198 136.49728725 7.47836878 136.50163984 6.06144333 136.51151657 C4.12565928 136.52421778 2.18977372 136.51657419 0.25396729 136.50793457 C-0.82893019 136.50940113 -1.91182766 136.51086769 -3.02754021 136.51237869 C-8.18948583 135.8544739 -11.58919568 132.97652714 -14.94577026 129.14044189 C-15.90952592 126.24917493 -16.07564601 124.41513176 -16.08621216 121.40951538 C-16.0919223 120.43657532 -16.09763245 119.46363525 -16.10351562 118.46121216 C-16.10463348 117.39516754 -16.10575134 116.32912292 -16.10690308 115.23077393 C-16.11186798 114.10695313 -16.11683289 112.98313232 -16.12194824 111.82525635 C-16.13657914 108.09958285 -16.14337308 104.37395192 -16.14889526 100.64825439 C-16.15464549 98.06377155 -16.16040324 95.47928872 -16.16616821 92.89480591 C-16.17533637 88.16592501 -16.18163591 83.43706117 -16.18466496 78.70817292 C-16.18914599 71.75106518 -16.2066976 64.79415388 -16.23566556 57.83710587 C-16.25989547 51.80843254 -16.26760967 45.7798521 -16.26934052 39.75112534 C-16.27237122 37.18744715 -16.28041372 34.62376989 -16.2935257 32.06012344 C-16.31054879 28.4762298 -16.30871491 24.89281641 -16.30221558 21.30889893 C-16.31603775 19.71590469 -16.31603775 19.71590469 -16.33013916 18.09072876 C-16.29220871 11.42580598 -15.43952832 7.94591971 -10.94577026 2.89044189 C-7.49898353 -0.1254965 -4.39865027 0.01209128 0 0 Z " fill="#FBAD4A" transform="translate(15.945770263671875,375.85955810546875)"/>
<path d="M0 0 C3.4845419 1.32643338 6.53253696 3.15161239 9.6875 5.125 C11.01587891 5.92176147 11.01587891 5.92176147 12.37109375 6.73461914 C14.26406621 7.87393872 16.15114855 9.02309271 18.03271484 10.18115234 C21.10465108 12.06414765 24.19934453 13.90433428 27.30078125 15.73828125 C29.36795982 16.97005897 31.43438466 18.20310263 33.5 19.4375 C34.47283936 20.01580566 35.44567871 20.59411133 36.44799805 21.18994141 C47.42516636 27.85033272 47.42516636 27.85033272 50 33 C51.19308258 41.23747449 48.68691695 46.68109598 44.5 53.625 C43.97535156 54.53378906 43.45070313 55.44257812 42.91015625 56.37890625 C41.62549699 58.59786316 40.32242648 60.80341636 39 63 C41.1217363 64.33878572 43.24705188 65.67115476 45.375 67 C45.97828125 67.3815625 46.5815625 67.763125 47.203125 68.15625 C50.36116713 70.29684569 50.36116713 70.29684569 54 71 C54.27150879 70.48091064 54.54301758 69.96182129 54.82275391 69.42700195 C56.07678365 67.04816644 57.35062766 64.6804956 58.625 62.3125 C59.05167969 61.49587891 59.47835937 60.67925781 59.91796875 59.83789062 C62.67099878 54.76327557 64.95235503 50.94346043 70 48 C77.75352416 46.37001202 83.23571689 49.08949508 89.6875 53.125 C91.01587891 53.92176147 91.01587891 53.92176147 92.37109375 54.73461914 C94.26406621 55.87393872 96.15114855 57.02309271 98.03271484 58.18115234 C101.10465108 60.06414765 104.19934453 61.90433428 107.30078125 63.73828125 C109.36795982 64.97005897 111.43438466 66.20310263 113.5 67.4375 C114.47283936 68.01580566 115.44567871 68.59411133 116.44799805 69.18994141 C127.42516636 75.85033272 127.42516636 75.85033272 130 81 C131.05090148 88.85736514 129.07098189 94.01240509 125 100.625 C124.52304687 101.43839844 124.04609375 102.25179687 123.5546875 103.08984375 C122.38859303 105.07220435 121.20418804 107.04063234 120 109 C122.96213574 111.30465234 126.02152757 113.27590448 129.25 115.1875 C130.14203125 115.71730469 131.0340625 116.24710937 131.953125 116.79296875 C132.62859375 117.19128906 133.3040625 117.58960937 134 118 C134.27150879 117.51120361 134.54301758 117.02240723 134.82275391 116.51879883 C136.07777598 114.27617052 137.35114638 112.04448135 138.625 109.8125 C139.05167969 109.04357422 139.47835938 108.27464844 139.91796875 107.48242188 C142.72318121 102.60470171 145.10750966 98.89946874 150 96 C157.36848052 94.19205842 162.78753863 96.97192475 169.06030273 100.67431641 C170.13352783 101.33866699 171.20675293 102.00301758 172.3125 102.6875 C173.43664307 103.36216309 174.56078613 104.03682617 175.71899414 104.73193359 C178.0300038 106.1198987 180.33210524 107.52114782 182.62792969 108.93408203 C185.82129347 110.89051443 189.03474154 112.80786868 192.2578125 114.71484375 C194.15205852 115.8498672 196.04534179 116.98649944 197.9375 118.125 C198.81253174 118.64408936 199.68756348 119.16317871 200.58911133 119.69799805 C205.63404348 122.79608244 208.98185544 125.19061559 210.57421875 131.1484375 C210.96610645 138.85105789 207.6036144 144.32192253 203.84765625 150.77734375 C201.93363992 153.86987557 201.93363992 153.86987557 201 157 C201.73089844 157.27328125 202.46179688 157.5465625 203.21484375 157.828125 C209.68606518 160.55093907 216.1343364 164.39651432 219 171 C220.92817719 178.25978123 218.51904571 183.76909974 215 190 C213.58200724 192.43084473 212.13639027 194.8420849 210.67333984 197.24609375 C208.85816068 200.23343267 207.07720155 203.23945913 205.30078125 206.25 C203.28712452 209.66078585 201.27218016 213.07070053 199.24487305 216.47338867 C194.53374637 224.38184623 189.90033713 232.33165576 185.3125 240.3125 C184.07946446 242.44793825 182.84639197 244.58335516 181.61328125 246.71875 C179.19268639 250.91488215 176.79861704 255.12484653 174.41796875 259.34375 C173.27911324 261.33360092 172.13981099 263.32319624 171 265.3125 C170.49637939 266.2197583 169.99275879 267.1270166 169.47387695 268.06176758 C166.31605872 273.52844943 163.54677796 276.88778069 158 280 C152.15598776 281.51167369 147.08326791 280.37326919 141.93359375 277.39453125 C140.97662598 276.85030518 140.0196582 276.3060791 139.03369141 275.74536133 C138.03257324 275.16939209 137.03145508 274.59342285 136 274 C133.95636979 272.87147479 131.91074632 271.74655265 129.86328125 270.625 C117.79689089 263.95663502 105.80707794 257.18792882 93.92114258 250.20117188 C86.83058469 246.04215763 79.68302526 241.99694311 72.5 238 C63.27065229 232.86374835 54.12762875 227.59787376 45.01953125 222.25 C37.8947181 218.07756041 30.71453859 214.01504756 23.5 210 C14.27068598 204.86368611 5.12763027 199.59787465 -3.98046875 194.25 C-11.1052819 190.07756041 -18.28546141 186.01504756 -25.5 182 C-34.72931402 176.86368611 -43.87236973 171.59787465 -52.98046875 166.25 C-60.10531416 162.07754151 -67.28619064 158.01639774 -74.5 154 C-78.66891249 151.67066118 -82.83524456 149.33676272 -87 147 C-88.10666016 146.37996094 -89.21332031 145.75992188 -90.35351562 145.12109375 C-93.66003135 143.26058172 -96.95612725 141.3827865 -100.25 139.5 C-101.25611328 138.93667969 -102.26222656 138.37335938 -103.29882812 137.79296875 C-109.24115532 134.37051501 -113.85653437 131.28693126 -117 125 C-119.3400314 114.74455804 -113.7617562 107.11492904 -108.67333984 98.75390625 C-106.85816068 95.76656733 -105.07720155 92.76054087 -103.30078125 89.75 C-101.28712452 86.33921415 -99.27218016 82.92929947 -97.24487305 79.52661133 C-92.53375148 71.61816236 -87.89969552 63.66870713 -83.3125 55.6875 C-82.08223366 53.55326872 -80.85176718 51.41915281 -79.62109375 49.28515625 C-77.79788523 46.12338957 -75.97726825 42.96027538 -74.16455078 39.79248047 C-72.41071008 36.73115412 -70.64425855 33.67743471 -68.875 30.625 C-68.35462158 29.70936279 -67.83424316 28.79372559 -67.2980957 27.8503418 C-64.26096285 22.64148766 -61.53940342 18.76970171 -56 16 C-47.05054761 14.75307454 -41.47205482 17.33886104 -34 22 C-32.78010859 22.64291574 -31.55276975 23.27233371 -30.3125 23.875 C-29.549375 24.24625 -28.78625 24.6175 -28 25 C-27.01 23.4221875 -27.01 23.4221875 -26 21.8125 C-25.54625 21.09191406 -25.0925 20.37132813 -24.625 19.62890625 C-23.41495509 17.67130956 -22.23161622 15.69715573 -21.0625 13.71484375 C-20.7221875 13.14338623 -20.381875 12.57192871 -20.03125 11.9831543 C-19.03570664 10.31000982 -18.04893504 8.63165559 -17.0625 6.953125 C-12.34540218 0.19909857 -8.03026985 -1.37611037 0 0 Z M-51 33 C-51.40089844 33.70680908 -51.80179688 34.41361816 -52.21484375 35.1418457 C-60.3594299 49.48605944 -68.59251792 63.76564503 -77.03564453 77.93676758 C-82.54574466 87.19719407 -87.9448566 96.51796876 -93.30493164 105.86572266 C-94.18652954 107.40172119 -94.18652954 107.40172119 -95.0859375 108.96875 C-95.8601001 110.32129883 -95.8601001 110.32129883 -96.64990234 111.70117188 C-97.70815571 113.50307309 -98.84085599 115.26128399 -100 117 C-100.07904587 119.05922472 -100.07904587 119.05922472 -99 121 C-96.74078247 122.72225937 -96.74078247 122.72225937 -93.83984375 124.1796875 C-92.74849121 124.77144775 -91.65713867 125.36320801 -90.53271484 125.97290039 C-89.65495392 126.4372197 -89.65495392 126.4372197 -88.75946045 126.91091919 C-85.64973726 128.5564129 -82.56339226 130.24498283 -79.47265625 131.92578125 C-78.84145874 132.26731735 -78.21026123 132.60885345 -77.55993652 132.96073914 C-71.58852745 136.19902633 -65.72471021 139.60961752 -59.875 143.0625 C-51.80418115 147.80925507 -43.68183299 152.44727745 -35.5 157 C-26.27065229 162.13625165 -17.12762875 167.40212624 -8.01953125 172.75 C-0.8947181 176.92243959 6.28546141 180.98495244 13.5 185 C22.72931402 190.13631389 31.87236973 195.40212535 40.98046875 200.75 C48.1052819 204.92243959 55.28546141 208.98495244 62.5 213 C71.72931402 218.13631389 80.87236973 223.40212535 89.98046875 228.75 C98.12551409 233.5199089 106.34841038 238.13985367 114.60058594 242.72143555 C120.01693864 245.73776605 125.39667495 248.80328618 130.734375 251.95703125 C131.82685547 252.60220703 132.91933594 253.24738281 134.04492188 253.91210938 C136.13340436 255.15043567 138.2182431 256.39493451 140.29882812 257.64648438 C141.23662109 258.20271484 142.17441406 258.75894531 143.140625 259.33203125 C143.96079102 259.82421143 144.78095703 260.3163916 145.62597656 260.82348633 C148.09811495 262.0486236 150.28235798 262.58764102 153 263 C153.40089844 262.29319092 153.80179688 261.58638184 154.21484375 260.8581543 C162.3594299 246.51394056 170.59251792 232.23435497 179.03564453 218.06323242 C184.54574466 208.80280593 189.9448566 199.48203124 195.30493164 190.13427734 C195.89266357 189.11027832 196.48039551 188.0862793 197.0859375 187.03125 C197.6020459 186.12955078 198.1181543 185.22785156 198.64990234 184.29882812 C199.70815571 182.49692691 200.84085599 180.73871601 202 179 C202 178.01 202 177.02 202 176 C185.20524567 166.28960911 168.38164248 156.63135126 151.53222656 147.01611328 C146.2695208 144.01266824 141.00882814 141.00570035 135.74798584 137.99899292 C132.83207328 136.33251718 129.91603002 134.66627018 127 133 C125.83333271 132.33333443 124.66666604 131.66666776 123.5 131 C122.9225 130.67 122.345 130.34 121.75 130 C82.66666667 107.66666667 43.58333333 85.33333333 4.5 63 C3.92262589 62.67008057 3.34525177 62.34016113 2.75038147 62.00024414 C1.58241319 61.33281624 0.41447501 60.66533568 -0.75343323 59.99780273 C-3.64994342 58.34235145 -6.54706316 56.68799062 -9.44506836 55.03515625 C-14.93622447 51.90200595 -20.42185828 48.7603477 -25.89126587 45.58935547 C-28.48724125 44.0849644 -31.08591248 42.58526568 -33.68481445 41.0859375 C-34.92803852 40.36693338 -36.16992393 39.64560918 -37.41040039 38.921875 C-39.12570766 37.92129854 -40.84594557 36.92918913 -42.56640625 35.9375 C-43.54552979 35.36902344 -44.52465332 34.80054688 -45.53344727 34.21484375 C-47.99029704 32.77907882 -47.99029704 32.77907882 -51 33 Z " fill="#010001" transform="translate(293,0)"/>
<path d="M0 0 C1.14483856 -0.0127597 2.28967712 -0.02551941 3.46920776 -0.03866577 C5.32547287 -0.04200424 5.32547287 -0.04200424 7.21923828 -0.04541016 C9.12613937 -0.05539536 9.12613937 -0.05539536 11.07156372 -0.06558228 C13.76334614 -0.0757172 16.4547248 -0.08126322 19.14648438 -0.08007812 C22.58884624 -0.07987505 26.03038144 -0.10716384 29.47254753 -0.14162254 C32.76307998 -0.1692652 36.05360548 -0.16804154 39.34423828 -0.17041016 C41.19443069 -0.19196671 41.19443069 -0.19196671 43.08200073 -0.21395874 C44.23314362 -0.20780548 45.3842865 -0.20165222 46.5703125 -0.1953125 C48.08563065 -0.19958755 48.08563065 -0.19958755 49.63156128 -0.20394897 C53.18586264 0.42757258 54.82678242 1.82025297 57.41455078 4.29052734 C59.71211 7.73686617 59.65099054 9.00121126 59.60986328 13.05224609 C59.60341797 14.17050781 59.59697266 15.28876953 59.59033203 16.44091797 C59.56519531 18.19178711 59.56519531 18.19178711 59.53955078 19.97802734 C59.53052734 21.156875 59.52150391 22.33572266 59.51220703 23.55029297 C59.48861596 26.46379077 59.45274464 29.37718439 59.41455078 32.29052734 C64.69455078 32.29052734 69.97455078 32.29052734 75.41455078 32.29052734 C75.36814453 30.54384766 75.32173828 28.79716797 75.27392578 26.99755859 C75.2364048 24.69939861 75.200005 22.40122014 75.16455078 20.10302734 C75.13103516 18.95253906 75.09751953 17.80205078 75.06298828 16.61669922 C75.04365234 14.94897461 75.04365234 14.94897461 75.02392578 13.24755859 C74.99250488 11.71578979 74.99250488 11.71578979 74.96044922 10.15307617 C75.53688406 6.5193673 76.89064377 4.91897994 79.41455078 2.29052734 C82.80694296 0.02893256 84.01864917 0.03009278 88 0 C89.14483856 -0.0127597 90.28967712 -0.02551941 91.46920776 -0.03866577 C92.70671783 -0.04089142 93.94422791 -0.04311707 95.21923828 -0.04541016 C97.12613937 -0.05539536 97.12613937 -0.05539536 99.07156372 -0.06558228 C101.76334614 -0.0757172 104.4547248 -0.08126322 107.14648438 -0.08007812 C110.58884624 -0.07987505 114.03038144 -0.10716384 117.47254753 -0.14162254 C120.76307998 -0.1692652 124.05360548 -0.16804154 127.34423828 -0.17041016 C129.19443069 -0.19196671 129.19443069 -0.19196671 131.08200073 -0.21395874 C132.23314362 -0.20780548 133.3842865 -0.20165222 134.5703125 -0.1953125 C136.08563065 -0.19958755 136.08563065 -0.19958755 137.63156128 -0.20394897 C141.18586264 0.42757258 142.82678242 1.82025297 145.41455078 4.29052734 C147.71211 7.73686617 147.65099054 9.00121126 147.60986328 13.05224609 C147.60019531 14.72963867 147.60019531 14.72963867 147.59033203 16.44091797 C147.56519531 18.19178711 147.56519531 18.19178711 147.53955078 19.97802734 C147.53052734 21.156875 147.52150391 22.33572266 147.51220703 23.55029297 C147.48861596 26.46379077 147.45274464 29.37718439 147.41455078 32.29052734 C155.33455078 32.29052734 163.25455078 32.29052734 171.41455078 32.29052734 C171.36814453 30.54384766 171.32173828 28.79716797 171.27392578 26.99755859 C171.2364048 24.69939861 171.200005 22.40122014 171.16455078 20.10302734 C171.13103516 18.95253906 171.09751953 17.80205078 171.06298828 16.61669922 C171.05009766 15.50488281 171.03720703 14.39306641 171.02392578 13.24755859 C171.00297852 12.22637939 170.98203125 11.2052002 170.96044922 10.15307617 C171.53688406 6.5193673 172.89064377 4.91897994 175.41455078 2.29052734 C178.80694296 0.02893256 180.01864917 0.03009278 184 0 C185.14483856 -0.0127597 186.28967712 -0.02551941 187.46920776 -0.03866577 C188.70671783 -0.04089142 189.94422791 -0.04311707 191.21923828 -0.04541016 C193.12613937 -0.05539536 193.12613937 -0.05539536 195.07156372 -0.06558228 C197.76334614 -0.0757172 200.4547248 -0.08126322 203.14648438 -0.08007812 C206.58884624 -0.07987505 210.03038144 -0.10716384 213.47254753 -0.14162254 C216.76307998 -0.1692652 220.05360548 -0.16804154 223.34423828 -0.17041016 C225.19443069 -0.19196671 225.19443069 -0.19196671 227.08200073 -0.21395874 C228.23314362 -0.20780548 229.3842865 -0.20165222 230.5703125 -0.1953125 C231.5805246 -0.19816254 232.59073669 -0.20101257 233.63156128 -0.20394897 C237.18586264 0.42757258 238.82678242 1.82025297 241.41455078 4.29052734 C243.71211 7.73686617 243.65099054 9.00121126 243.60986328 13.05224609 C243.60341797 14.17050781 243.59697266 15.28876953 243.59033203 16.44091797 C243.57357422 17.60816406 243.55681641 18.77541016 243.53955078 19.97802734 C243.53052734 21.156875 243.52150391 22.33572266 243.51220703 23.55029297 C243.48861501 26.46390761 243.45569618 29.37711626 243.41455078 32.29052734 C244.0495752 32.26958008 244.68459961 32.24863281 245.33886719 32.22705078 C248.23893154 32.14348154 251.13874194 32.09173961 254.03955078 32.04052734 C255.03857422 32.00701172 256.03759766 31.97349609 257.06689453 31.93896484 C263.02580441 31.86003889 266.8457069 32.04501703 271.41455078 36.29052734 C276.13888342 41.72355056 275.98600398 46.51390598 275.93212891 53.52490234 C275.94264282 55.20888123 275.94264282 55.20888123 275.95336914 56.92687988 C275.97095022 60.63168188 275.95932512 64.3357178 275.94580078 68.04052734 C275.94849564 70.61832831 275.95237801 73.19612829 275.95739746 75.77392578 C275.96329271 81.17409897 275.95511104 86.57398514 275.93603516 91.97412109 C275.91426789 98.20794617 275.92131994 104.44124787 275.94334078 110.67506027 C275.96371379 116.68404083 275.96151452 122.69276635 275.94981384 128.70178223 C275.94714629 131.25345941 275.95041726 133.80514995 275.95973206 136.35681152 C275.96989527 139.92361792 275.95439778 143.48942066 275.93212891 147.05615234 C275.94022583 148.10984009 275.94832275 149.16352783 275.95666504 150.24914551 C275.88927066 156.07851898 275.53271112 159.8116444 271.41455078 164.29052734 C265.80646393 169.31833112 260.32173325 168.85366844 253.04052734 168.79846191 C251.78190006 168.80470188 250.52327278 168.81094184 249.22650528 168.81737089 C245.7398147 168.83405493 242.25356257 168.82582241 238.7668705 168.81342602 C235.00401477 168.80437393 231.24123432 168.81834602 227.47839355 168.8293457 C220.10971859 168.84713387 212.74120657 168.84328966 205.37252522 168.83169514 C199.38395665 168.82266225 193.39543377 168.82143619 187.40686035 168.82579041 C186.55459437 168.82640334 185.70232838 168.82701627 184.82423615 168.82764778 C183.09288373 168.82892667 181.36153132 168.83022353 179.63017893 168.83153814 C163.39459014 168.84294481 147.15909168 168.82982888 130.9235177 168.80833668 C116.99209807 168.79046561 103.06081176 168.79356969 89.12939453 168.81201172 C72.95197733 168.83341691 56.77463931 168.84184616 40.59720993 168.82956266 C38.87222037 168.82828847 37.1472308 168.82703098 35.42224121 168.82579041 C34.57350945 168.8251733 33.72477768 168.8245562 32.85032678 168.8239204 C26.86882645 168.82046644 20.88737634 168.82629682 14.90588379 168.83570862 C7.61658657 168.84692608 0.32746164 168.84389395 -6.96181583 168.82258564 C-10.68108669 168.81207172 -14.40007025 168.80795897 -18.11933899 168.82118225 C-22.15028481 168.83529693 -26.18050498 168.81844622 -30.21142578 168.79846191 C-31.38826809 168.8073848 -32.5651104 168.81630769 -33.77761459 168.82550097 C-40.02591548 168.76521604 -43.85915694 168.52777808 -48.58544922 164.29052734 C-53.46052548 158.98842784 -53.15552007 153.88725744 -53.10302734 147.05615234 C-53.11003662 145.93349976 -53.1170459 144.81084717 -53.12426758 143.6541748 C-53.14184866 139.94937281 -53.13022356 136.24533689 -53.11669922 132.54052734 C-53.11939408 129.96272637 -53.12327644 127.3849264 -53.1282959 124.80712891 C-53.13419115 119.40695571 -53.12600948 114.00706954 -53.10693359 108.60693359 C-53.08516632 102.37310852 -53.09221838 96.13980682 -53.11423922 89.90599442 C-53.13461223 83.89701386 -53.13241296 77.88828834 -53.12071228 71.87927246 C-53.11804473 69.32759528 -53.1213157 66.77590474 -53.13063049 64.22424316 C-53.14079371 60.65743677 -53.12529622 57.09163403 -53.10302734 53.52490234 C-53.11112427 52.4712146 -53.11922119 51.41752686 -53.12756348 50.33190918 C-53.05813657 44.32672973 -52.59090933 40.86032397 -48.58544922 36.29052734 C-44.15876347 32.57861911 -41.16230397 31.8020341 -35.43701172 31.89990234 C-34.77962006 31.90556213 -34.12222839 31.91122192 -33.44491577 31.91705322 C-31.36598731 31.93926459 -29.28884759 31.98942314 -27.21044922 32.04052734 C-25.79250554 32.06061245 -24.37453457 32.07885969 -22.95654297 32.09521484 C-19.49894045 32.13907668 -16.04236971 32.20799297 -12.58544922 32.29052734 C-12.60639648 31.55938721 -12.62734375 30.82824707 -12.64892578 30.07495117 C-12.73225236 26.75111734 -12.78416253 23.42750351 -12.83544922 20.10302734 C-12.86896484 18.95253906 -12.90248047 17.80205078 -12.93701172 16.61669922 C-12.94990234 15.50488281 -12.96279297 14.39306641 -12.97607422 13.24755859 C-12.99702148 12.22637939 -13.01796875 11.2052002 -13.03955078 10.15307617 C-12.46311594 6.5193673 -11.10935623 4.91897994 -8.58544922 2.29052734 C-5.19305704 0.02893256 -3.98135083 0.03009278 0 0 Z M-36.58544922 48.29052734 C-36.58544922 82.61052734 -36.58544922 116.93052734 -36.58544922 152.29052734 C61.09455078 152.29052734 158.77455078 152.29052734 259.41455078 152.29052734 C259.41455078 117.97052734 259.41455078 83.65052734 259.41455078 48.29052734 C161.73455078 48.29052734 64.05455078 48.29052734 -36.58544922 48.29052734 Z " fill="#000000" transform="translate(52.58544921875,199.70947265625)"/>
<path d="M0 0 C1.14483856 -0.0127597 2.28967712 -0.02551941 3.46920776 -0.03866577 C4.70671783 -0.04089142 5.94422791 -0.04311707 7.21923828 -0.04541016 C9.12613937 -0.05539536 9.12613937 -0.05539536 11.07156372 -0.06558228 C13.76334614 -0.0757172 16.4547248 -0.08126322 19.14648438 -0.08007812 C22.58884624 -0.07987505 26.03038144 -0.10716384 29.47254753 -0.14162254 C32.76307998 -0.1692652 36.05360548 -0.16804154 39.34423828 -0.17041016 C41.19443069 -0.19196671 41.19443069 -0.19196671 43.08200073 -0.21395874 C44.23314362 -0.20780548 45.3842865 -0.20165222 46.5703125 -0.1953125 C47.5805246 -0.19816254 48.59073669 -0.20101257 49.63156128 -0.20394897 C53.18586264 0.42757258 54.82678242 1.82025297 57.41455078 4.29052734 C59.71211 7.73686617 59.65099054 9.00121126 59.60986328 13.05224609 C59.60341797 14.17050781 59.59697266 15.28876953 59.59033203 16.44091797 C59.57357422 17.60816406 59.55681641 18.77541016 59.53955078 19.97802734 C59.53052734 21.156875 59.52150391 22.33572266 59.51220703 23.55029297 C59.48861501 26.46390761 59.45569618 29.37711626 59.41455078 32.29052734 C60.0495752 32.26958008 60.68459961 32.24863281 61.33886719 32.22705078 C64.23893154 32.14348154 67.13874194 32.09173961 70.03955078 32.04052734 C71.03857422 32.00701172 72.03759766 31.97349609 73.06689453 31.93896484 C79.02580441 31.86003889 82.8457069 32.04501703 87.41455078 36.29052734 C92.13888342 41.72355056 91.98600398 46.51390598 91.93212891 53.52490234 C91.94264282 55.20888123 91.94264282 55.20888123 91.95336914 56.92687988 C91.97095022 60.63168188 91.95932512 64.3357178 91.94580078 68.04052734 C91.94849564 70.61832831 91.95237801 73.19612829 91.95739746 75.77392578 C91.96329271 81.17409897 91.95511104 86.57398514 91.93603516 91.97412109 C91.91426789 98.20794617 91.92131994 104.44124787 91.94334078 110.67506027 C91.96371379 116.68404083 91.96151452 122.69276635 91.94981384 128.70178223 C91.94714629 131.25345941 91.95041726 133.80514995 91.95973206 136.35681152 C91.96989527 139.92361792 91.95439778 143.48942066 91.93212891 147.05615234 C91.94022583 148.10984009 91.94832275 149.16352783 91.95666504 150.24914551 C91.88927066 156.07851898 91.53271112 159.8116444 87.41455078 164.29052734 C81.80646393 169.31833112 76.32173325 168.85366844 69.04052734 168.79846191 C67.78190006 168.80470188 66.52327278 168.81094184 65.22650528 168.81737089 C61.7398147 168.83405493 58.25356257 168.82582241 54.7668705 168.81342602 C51.00401477 168.80437393 47.24123432 168.81834602 43.47839355 168.8293457 C36.10971859 168.84713387 28.74120657 168.84328966 21.37252522 168.83169514 C15.38395665 168.82266225 9.39543377 168.82143619 3.40686035 168.82579041 C2.55459437 168.82640334 1.70232838 168.82701627 0.82423615 168.82764778 C-0.90711627 168.82892667 -2.63846868 168.83022353 -4.36982107 168.83153814 C-20.60540986 168.84294481 -36.84090832 168.82982888 -53.0764823 168.80833668 C-67.00790193 168.79046561 -80.93918824 168.79356969 -94.87060547 168.81201172 C-111.04802267 168.83341691 -127.22536069 168.84184616 -143.40279007 168.82956266 C-145.12777963 168.82828847 -146.8527692 168.82703098 -148.57775879 168.82579041 C-149.42649055 168.8251733 -150.27522232 168.8245562 -151.14967322 168.8239204 C-157.13117355 168.82046644 -163.11262366 168.82629682 -169.09411621 168.83570862 C-176.38341343 168.84692608 -183.67253836 168.84389395 -190.96181583 168.82258564 C-194.68108669 168.81207172 -198.40007025 168.80795897 -202.11933899 168.82118225 C-206.15028481 168.83529693 -210.18050498 168.81844622 -214.21142578 168.79846191 C-215.38826809 168.8073848 -216.5651104 168.81630769 -217.77761459 168.82550097 C-224.02591548 168.76521604 -227.85915694 168.52777808 -232.58544922 164.29052734 C-237.46052548 158.98842784 -237.15552007 153.88725744 -237.10302734 147.05615234 C-237.11003662 145.93349976 -237.1170459 144.81084717 -237.12426758 143.6541748 C-237.14184866 139.94937281 -237.13022356 136.24533689 -237.11669922 132.54052734 C-237.11939408 129.96272637 -237.12327644 127.3849264 -237.1282959 124.80712891 C-237.13419115 119.40695571 -237.12600948 114.00706954 -237.10693359 108.60693359 C-237.08516632 102.37310852 -237.09221838 96.13980682 -237.11423922 89.90599442 C-237.13461223 83.89701386 -237.13241296 77.88828834 -237.12071228 71.87927246 C-237.11804473 69.32759528 -237.1213157 66.77590474 -237.13063049 64.22424316 C-237.14079371 60.65743677 -237.12529622 57.09163403 -237.10302734 53.52490234 C-237.11112427 52.4712146 -237.11922119 51.41752686 -237.12756348 50.33190918 C-237.06016909 44.5025357 -236.70360956 40.76941029 -232.58544922 36.29052734 C-227.55062117 32.1571866 -223.97449867 31.72039531 -217.73965454 31.80950928 C-216.86064779 31.80609158 -215.98164103 31.80267388 -215.07599771 31.79915261 C-212.13691966 31.79257525 -209.19875923 31.81454752 -206.25976562 31.83642578 C-204.15053326 31.83755429 -202.04129932 31.83692033 -199.93206787 31.83465576 C-194.20932749 31.83350782 -188.48692228 31.85703039 -182.76425982 31.88495159 C-176.78250355 31.90995175 -170.80073966 31.91230616 -164.81893921 31.91705322 C-153.49303856 31.92948704 -142.16729229 31.96231428 -130.84145963 32.00245118 C-117.94678712 32.04715614 -105.05210724 32.06915275 -92.15737653 32.08923292 C-65.63331516 32.13104643 -39.10939084 32.20140652 -12.58544922 32.29052734 C-12.60639648 31.55938721 -12.62734375 30.82824707 -12.64892578 30.07495117 C-12.73225236 26.75111734 -12.78416253 23.42750351 -12.83544922 20.10302734 C-12.86896484 18.95253906 -12.90248047 17.80205078 -12.93701172 16.61669922 C-12.94990234 15.50488281 -12.96279297 14.39306641 -12.97607422 13.24755859 C-12.99702148 12.22637939 -13.01796875 11.2052002 -13.03955078 10.15307617 C-12.46311594 6.5193673 -11.10935623 4.91897994 -8.58544922 2.29052734 C-5.19305704 0.02893256 -3.98135083 0.03009278 0 0 Z M-220.58544922 48.29052734 C-220.58544922 82.61052734 -220.58544922 116.93052734 -220.58544922 152.29052734 C-122.90544922 152.29052734 -25.22544922 152.29052734 75.41455078 152.29052734 C75.41455078 117.97052734 75.41455078 83.65052734 75.41455078 48.29052734 C-22.26544922 48.29052734 -119.94544922 48.29052734 -220.58544922 48.29052734 Z " fill="#000000" transform="translate(420.58544921875,343.70947265625)"/>
<path d="M0 0 C1.24219299 -0.00571014 2.48438599 -0.01142029 3.76422119 -0.01730347 C5.14327993 -0.0185488 6.52233878 -0.0196739 7.90139771 -0.02069092 C9.35183844 -0.02531956 10.80227796 -0.03034428 12.25271606 -0.03573608 C16.19489671 -0.04885676 20.13706033 -0.05530426 24.0792594 -0.05974674 C26.54187722 -0.0626777 29.00449039 -0.06678253 31.46710587 -0.07125092 C39.17126789 -0.0849243 46.87541927 -0.09459202 54.57959259 -0.09845281 C63.47461911 -0.10293483 72.36949206 -0.12049001 81.26447189 -0.1494534 C88.13929144 -0.17106238 95.01406775 -0.18115665 101.8889209 -0.18249393 C105.99543353 -0.18354242 110.10180177 -0.18945971 114.20827866 -0.20731354 C118.07098191 -0.22378097 121.93343201 -0.2259563 125.79615784 -0.21717453 C127.2131175 -0.21640347 128.6300907 -0.22075605 130.04701614 -0.23063278 C131.98280019 -0.24333399 133.91868575 -0.2356904 135.85449219 -0.22705078 C136.93738966 -0.22851734 138.02028713 -0.2299839 139.13599968 -0.2314949 C144.2979453 0.42640988 147.69765515 3.30435665 151.05422974 7.14044189 C152.01798539 10.03170886 152.18410549 11.86575203 152.19467163 14.87136841 C152.20038177 15.84430847 152.20609192 16.81724854 152.2119751 17.81967163 C152.21365189 19.41873856 152.21365189 19.41873856 152.21536255 21.05010986 C152.22032745 22.17393066 152.22529236 23.29775146 152.23040771 24.45562744 C152.24503861 28.18130094 152.25183255 31.90693187 152.25735474 35.63262939 C152.26310497 38.21711224 152.26886271 40.80159507 152.27462769 43.38607788 C152.28379584 48.11495878 152.29009539 52.84382261 152.29312444 57.57271087 C152.29760546 64.52981861 152.31515708 71.48672991 152.34412503 78.44377792 C152.36835495 84.47245124 152.37606914 90.50103169 152.37779999 96.52975845 C152.38083069 99.09343663 152.38887319 101.6571139 152.40198517 104.22076035 C152.41900826 107.80465399 152.41717438 111.38806737 152.41067505 114.97198486 C152.41988983 116.03398102 152.42910461 117.09597717 152.43859863 118.19015503 C152.40066818 124.85507781 151.5479878 128.33496408 147.05422974 133.39044189 C143.607443 136.40638029 140.50710974 136.26879251 136.10845947 136.28088379 C134.24516998 136.28944901 134.24516998 136.28944901 132.34423828 136.29818726 C130.96517954 136.29943259 129.58612069 136.30055769 128.20706177 136.30157471 C126.75662103 136.30620335 125.30618151 136.31122807 123.85574341 136.31661987 C119.91356276 136.32974054 115.97139915 136.33618805 112.02920008 136.34063053 C109.56658225 136.34356149 107.10396909 136.34766632 104.64135361 136.3521347 C96.93719159 136.36580809 89.2330402 136.37547581 81.52886689 136.3793366 C72.63384036 136.38381862 63.73896741 136.4013738 54.84398758 136.43033719 C47.96916804 136.45194617 41.09439172 136.46204044 34.21953857 136.46337771 C30.11302594 136.46442621 26.00665771 136.4703435 21.90018082 136.48819733 C18.03747757 136.50466476 14.17502746 136.50684009 10.31230164 136.49805832 C8.89534198 136.49728725 7.47836878 136.50163984 6.06144333 136.51151657 C4.12565928 136.52421778 2.18977372 136.51657419 0.25396729 136.50793457 C-0.82893019 136.50940113 -1.91182766 136.51086769 -3.02754021 136.51237869 C-8.18948583 135.8544739 -11.58919568 132.97652714 -14.94577026 129.14044189 C-15.90952592 126.24917493 -16.07564601 124.41513176 -16.08621216 121.40951538 C-16.0919223 120.43657532 -16.09763245 119.46363525 -16.10351562 118.46121216 C-16.10463348 117.39516754 -16.10575134 116.32912292 -16.10690308 115.23077393 C-16.11186798 114.10695313 -16.11683289 112.98313232 -16.12194824 111.82525635 C-16.13657914 108.09958285 -16.14337308 104.37395192 -16.14889526 100.64825439 C-16.15464549 98.06377155 -16.16040324 95.47928872 -16.16616821 92.89480591 C-16.17533637 88.16592501 -16.18163591 83.43706117 -16.18466496 78.70817292 C-16.18914599 71.75106518 -16.2066976 64.79415388 -16.23566556 57.83710587 C-16.25989547 51.80843254 -16.26760967 45.7798521 -16.26934052 39.75112534 C-16.27237122 37.18744715 -16.28041372 34.62376989 -16.2935257 32.06012344 C-16.31054879 28.4762298 -16.30871491 24.89281641 -16.30221558 21.30889893 C-16.31603775 19.71590469 -16.31603775 19.71590469 -16.33013916 18.09072876 C-16.29220871 11.42580598 -15.43952832 7.94591971 -10.94577026 2.89044189 C-7.49898353 -0.1254965 -4.39865027 0.01209128 0 0 Z M0.05422974 16.14044189 C0.05422974 50.46044189 0.05422974 84.78044189 0.05422974 120.14044189 C44.93422974 120.14044189 89.81422974 120.14044189 136.05422974 120.14044189 C136.05422974 85.82044189 136.05422974 51.50044189 136.05422974 16.14044189 C91.17422974 16.14044189 46.29422974 16.14044189 0.05422974 16.14044189 Z " fill="#000000" transform="translate(15.945770263671875,375.85955810546875)"/>
<path d="M0 0 C4.338441 1.59269727 8.30276452 3.72660566 12.3125 6 C13.00021484 6.38792725 13.68792969 6.77585449 14.39648438 7.17553711 C22.07672124 11.54919874 29.54692759 16.25263074 37 21 C36.09111244 22.89957501 35.17251969 24.79450786 34.25 26.6875 C33.48429687 28.27111328 33.48429687 28.27111328 32.703125 29.88671875 C31.05149977 32.90585937 29.17774041 35.3485814 27 38 C23.05940596 35.81804068 19.12312908 33.62840012 15.1875 31.4375 C14.08728516 30.82841797 12.98707031 30.21933594 11.85351562 29.59179688 C4.741467 25.62667242 -2.18406402 21.45515685 -9 17 C-7.44439603 12.97986637 -5.57732004 9.39881711 -3.375 5.6875 C-2.74335938 4.61886719 -2.11171875 3.55023437 -1.4609375 2.44921875 C-0.97882813 1.64097656 -0.49671875 0.83273438 0 0 Z " fill="#E8527E" transform="translate(289,18)"/>
<path d="M0 0 C3.40240665 1.29387825 6.53585809 2.76904826 9.6953125 4.57421875 C10.5716333 5.07405273 11.4479541 5.57388672 12.35083008 6.08886719 C13.26630615 6.61641602 14.18178223 7.14396484 15.125 7.6875 C16.06045654 8.22407227 16.99591309 8.76064453 17.9597168 9.31347656 C24.42184449 13.03948919 30.78744041 16.86799315 37 21 C36.04416032 22.93873142 35.08523808 24.8759433 34.125 26.8125 C33.59132813 27.89144531 33.05765625 28.97039062 32.5078125 30.08203125 C31 33 31 33 29 36 C25.22954824 34.583396 21.79620026 32.86002579 18.2890625 30.8828125 C17.20882813 30.27566406 16.12859375 29.66851562 15.015625 29.04296875 C13.89671875 28.41003906 12.7778125 27.77710937 11.625 27.125 C10.51382812 26.49980469 9.40265625 25.87460938 8.2578125 25.23046875 C2.82758065 22.17273105 -2.59395594 19.10029616 -8 16 C-6.42986223 10.03347646 -3.24970218 5.17090975 0 0 Z " fill="#E8527E" transform="translate(369,66)"/>
<path d="M0 0 C3.40240665 1.29387825 6.53585809 2.76904826 9.6953125 4.57421875 C10.5716333 5.07405273 11.4479541 5.57388672 12.35083008 6.08886719 C13.26630615 6.61641602 14.18178223 7.14396484 15.125 7.6875 C16.06045654 8.22407227 16.99591309 8.76064453 17.9597168 9.31347656 C24.42184449 13.03948919 30.78744041 16.86799315 37 21 C36.07487334 22.98498051 35.13449763 24.96286018 34.1875 26.9375 C33.66542969 28.03964844 33.14335937 29.14179688 32.60546875 30.27734375 C31 33 31 33 28 34 C25.52319336 32.92358398 25.52319336 32.92358398 22.58984375 31.24609375 C20.98012695 30.3344043 20.98012695 30.3344043 19.33789062 29.40429688 C18.21576172 28.75525391 17.09363281 28.10621094 15.9375 27.4375 C14.84244141 26.81552734 13.74738281 26.19355469 12.61914062 25.55273438 C6.02388283 21.79355528 -0.50952584 17.93708486 -7 14 C-5.53967505 8.68972746 -3.01679014 4.53669968 0 0 Z " fill="#E8527E" transform="translate(449,114)"/>
<path d="M0 0 C13.2 0 26.4 0 40 0 C40 5.28 40 10.56 40 16 C26.8 16 13.6 16 0 16 C0 10.72 0 5.44 0 0 Z " fill="#FBAD4A" transform="translate(424,360)"/>
<path d="M0 0 C13.2 0 26.4 0 40 0 C40 5.28 40 10.56 40 16 C26.8 16 13.6 16 0 16 C0 10.72 0 5.44 0 0 Z " fill="#2A8EE6" transform="translate(240,216)"/>
<path d="M0 0 C13.2 0 26.4 0 40 0 C40 5.28 40 10.56 40 16 C26.8 16 13.6 16 0 16 C0 10.72 0 5.44 0 0 Z " fill="#2A8EE6" transform="translate(144,216)"/>
<path d="M0 0 C13.2 0 26.4 0 40 0 C40 5.28 40 10.56 40 16 C26.8 16 13.6 16 0 16 C0 10.72 0 5.44 0 0 Z " fill="#2A8EE6" transform="translate(56,216)"/>
</svg>
