<?xml version="1.0" encoding="UTF-8"?>
<svg version="1.1" xmlns="http://www.w3.org/2000/svg" width="512" height="512">
<path d="M0 0 C0.80332764 -0.03456299 1.60665527 -0.06912598 2.43432617 -0.10473633 C6.50643657 -0.13374551 8.36588687 0.1366725 11.828125 2.46875 C14.31293007 6.18617491 14.53077522 9.04909903 14.375 13.375 C14.35767822 14.19218506 14.34035645 15.00937012 14.32250977 15.85131836 C11.00791431 108.16238018 -29.83605666 202.16482529 -98.1875 269.4375 C-101.72121057 272.69238316 -105.18755429 275.77086953 -109.1875 278.4375 C-108.56212697 282.57106317 -107.15861471 285.82434733 -105.3125 289.5625 C-96.64764399 307.93116357 -95.75749743 327.84104403 -102.44140625 347.0390625 C-113.16660385 373.86666849 -137.46638199 392.31775844 -163.21875 403.734375 C-173.92528918 408.25747506 -184.88213091 411.76209628 -196.1875 414.4375 C-197.73244141 414.80681641 -197.73244141 414.80681641 -199.30859375 415.18359375 C-205.53345095 416.43547211 -211.79211753 416.71869907 -218.125 416.875 C-218.94282959 416.90956299 -219.76065918 416.94412598 -220.60327148 416.97973633 C-224.98600754 417.01009333 -226.64943249 416.86781407 -230.19140625 414.03515625 C-233.10738237 410.24039281 -233.6491697 408.23886488 -233.1875 403.4375 C-231.50647504 400.3556209 -229.57883345 397.9007277 -227.31640625 395.22265625 C-222.36782803 389.30120065 -218.89621581 383.67100244 -216.1875 376.4375 C-215.8678125 375.62152344 -215.548125 374.80554688 -215.21875 373.96484375 C-213.16496229 367.81298889 -212.8827407 361.80592628 -212.8125 355.375 C-212.79856201 354.52873047 -212.78462402 353.68246094 -212.77026367 352.81054688 C-212.75411317 350.13759633 -212.75411317 350.13759633 -213.1875 346.4375 C-214.1775 345.7775 -215.1675 345.1175 -216.1875 344.4375 C-218.81285468 344.99975841 -218.81285468 344.99975841 -221.68359375 346.21875 C-222.78968994 346.64623535 -223.89578613 347.0737207 -225.03540039 347.51416016 C-226.21996826 347.9838623 -227.40453613 348.45356445 -228.625 348.9375 C-231.08964855 349.87633598 -233.55581005 350.81120938 -236.0234375 351.7421875 C-237.24256836 352.20334961 -238.46169922 352.66451172 -239.71777344 353.13964844 C-251.02210542 357.36803493 -260.84330947 360.89530374 -273 360.0625 C-275.94564088 359.88308284 -278.21439165 360.00256252 -281.1875 360.4375 C-284.78104248 363.88448691 -286.23979533 367.9230941 -288.1875 372.4375 C-290.62893717 375.97129153 -293.36139547 379.20610141 -296.1875 382.4375 C-296.79078125 383.13617188 -297.3940625 383.83484375 -298.015625 384.5546875 C-318.19082033 406.34050767 -357.51241302 414.65682362 -385.9765625 416.7109375 C-387.24242187 416.74445313 -388.50828125 416.77796875 -389.8125 416.8125 C-391.08351563 416.86148437 -392.35453125 416.91046875 -393.6640625 416.9609375 C-397.1875 416.4375 -397.1875 416.4375 -400.109375 414.29296875 C-405.06297447 407.48642511 -402.43262528 397.71868298 -401.23046875 389.859375 C-395.96627499 357.89366832 -387.87133005 323.6401545 -360.125 303.625 C-355.63012971 300.61892193 -350.97535946 297.94707851 -346.1875 295.4375 C-346.29191406 294.47457031 -346.39632812 293.51164062 -346.50390625 292.51953125 C-347.8933145 272.92005704 -339.78617838 253.33763899 -332.04467773 235.62695312 C-331.09649307 233.47267939 -331.09649307 233.47267939 -330.1875 230.4375 C-330.8475 229.4475 -331.5075 228.4575 -332.1875 227.4375 C-335.19420245 227.09970246 -337.92990869 226.96342119 -340.9375 227 C-341.79279297 227.00757324 -342.64808594 227.01514648 -343.52929688 227.02294922 C-359.87809186 227.44175717 -372.70451376 234.07402398 -384.97265625 244.58203125 C-387.53046206 246.7248139 -388.62121474 247.3731494 -391.9375 247.75 C-395.99651885 247.35970973 -398.02051684 245.94162622 -401.1875 243.4375 C-408.11450137 229.58349725 -399.34992394 205.39255746 -394.9375 191.75 C-391.81523158 182.5246949 -387.9156539 173.94023054 -383.1875 165.4375 C-382.84493164 164.80650391 -382.50236328 164.17550781 -382.14941406 163.52539062 C-369.78240713 140.91209371 -351.27637654 122.22261621 -326.1875 114.4375 C-307.17046738 109.24856681 -287.24838869 113.13135195 -270 122.09375 C-267.2558516 123.65305036 -267.2558516 123.65305036 -264.1875 123.4375 C-262.58464921 122.01489329 -262.58464921 122.01489329 -261.0625 120.0625 C-260.134375 118.95841797 -260.134375 118.95841797 -259.1875 117.83203125 C-258.5275 117.04183594 -257.8675 116.25164062 -257.1875 115.4375 C-247.03954237 103.76338468 -236.35084472 93.00599785 -224.1875 83.4375 C-223.02163181 82.48397438 -221.8576746 81.52810897 -220.6953125 80.5703125 C-165.90469395 35.63479599 -95.34731326 12.81040041 -26.1875 2.4375 C-25.34348633 2.30472656 -24.49947266 2.17195312 -23.62988281 2.03515625 C-15.77189382 0.8022589 -7.94500363 0.19646101 0 0 Z " fill="#010000" transform="translate(498.1875,-0.43749999999999994)"/>
<path d="M0 0 C1.7728157 1.40367222 1.7728157 1.40367222 3.59405518 3.23329163 C4.28951447 3.92462692 4.98497375 4.61596222 5.70150757 5.32824707 C6.45388702 6.09141235 7.20626648 6.85457764 7.98144531 7.64086914 C8.7818222 8.44080795 9.5821991 9.24074677 10.40682983 10.06492615 C13.0544329 12.71462165 15.69124764 15.37479023 18.328125 18.03515625 C20.16021416 19.87283971 21.99296614 21.70986257 23.82635498 23.54624939 C28.15961275 27.88979693 32.48612426 32.23996037 36.80944896 36.59339184 C41.73217841 41.54965539 46.66343091 46.49740132 51.59541941 51.44444859 C61.73979376 61.62017915 71.87341516 71.80656726 82 82 C81.52841411 83.59815674 81.05475087 85.19570058 80.58021545 86.79298401 C80.31666795 87.68268167 80.05312044 88.57237932 79.78158665 89.48903751 C78.84727022 92.49066697 77.70422945 95.34013626 76.43359375 98.21484375 C75.71333008 99.84776367 75.71333008 99.84776367 74.97851562 101.51367188 C74.21571289 103.2084668 74.21571289 103.2084668 73.4375 104.9375 C72.63795898 106.71930664 72.63795898 106.71930664 71.82226562 108.53710938 C58.94967632 136.93658828 42.65026451 162.61960207 22 186 C21.53658203 186.52658203 21.07316406 187.05316406 20.59570312 187.59570312 C9.44872392 200.18001572 -2.79110445 211.60332092 -16 222 C-17.29069649 223.04386058 -18.58103328 224.088166 -19.87109375 225.1328125 C-39.19083295 240.63096784 -60.17167129 253.35991428 -82 265 C-83.06557129 265.58378418 -84.13114258 266.16756836 -85.22900391 266.76904297 C-86.28394043 267.32865723 -87.33887695 267.88827148 -88.42578125 268.46484375 C-89.37493408 268.97523193 -90.32408691 269.48562012 -91.30200195 270.01147461 C-94.50430985 271.18477518 -95.76916904 270.97813012 -99 270 C-101.03921318 268.47253132 -101.03921318 268.47253132 -103.06271362 266.46540833 C-104.22372337 265.32782074 -104.22372337 265.32782074 -105.40818787 264.16725159 C-106.24269974 263.32935593 -107.07721161 262.49146027 -107.93701172 261.62817383 C-108.82692307 260.75009064 -109.71683441 259.87200745 -110.63371277 258.96731567 C-113.06885076 256.5594343 -115.49455194 254.14280135 -117.91544867 251.72064805 C-119.93760749 249.69931991 -121.96544059 247.68373057 -123.99311173 245.6679346 C-128.77541357 240.91299842 -133.54662458 236.14712598 -138.31152344 231.37475586 C-143.22839577 226.45063537 -148.16526557 221.54722749 -153.1121062 216.65323049 C-157.35911379 212.44996277 -161.59251605 208.23332119 -165.81544125 204.00585955 C-168.3376438 201.48133246 -170.86490417 198.96244158 -173.40572739 196.45664406 C-176.23668984 193.66349544 -179.03911021 190.84275854 -181.83935547 188.01879883 C-182.68601273 187.19102432 -183.53266998 186.36324982 -184.40498352 185.51039124 C-189.97920496 179.82275973 -189.97920496 179.82275973 -190.08555603 175.61495972 C-188.89134415 172.73826254 -187.69067702 169.94591274 -186.26171875 167.17578125 C-185.69501465 166.07411621 -185.12831055 164.97245117 -184.54443359 163.83740234 C-183.93164551 162.67418457 -183.31885742 161.5109668 -182.6875 160.3125 C-182.21706268 159.41352997 -182.21706268 159.41352997 -181.73712158 158.49639893 C-167.17692859 130.71933382 -148.72329218 105.47697201 -128 82 C-127.51950195 81.4548877 -127.03900391 80.90977539 -126.54394531 80.34814453 C-114.57911419 66.86441981 -101.47049196 54.74873696 -87 44 C-86.37996094 43.53416504 -85.75992188 43.06833008 -85.12109375 42.58837891 C-18.86900482 -6.88319356 -18.86900482 -6.88319356 0 0 Z " fill="#FDFDFD" transform="translate(384,47)"/>
<path d="M0 0 C1.45067871 0.01812744 1.45067871 0.01812744 2.93066406 0.03662109 C9.94849502 0.23202138 15.82692456 1.10742421 22.0625 4.5 C23.32707031 5.13615234 23.32707031 5.13615234 24.6171875 5.78515625 C35.14418559 11.52860961 42.17538411 19.61506005 47.0625 30.5 C47.33030273 31.07580811 47.59810547 31.65161621 47.87402344 32.24487305 C50.27568796 37.87993193 50.60354611 43.10688664 50.5625 49.1875 C50.55750488 50.15776123 50.55250977 51.12802246 50.54736328 52.12768555 C50.20736476 66.18369328 44.22477628 78.16605956 34.046875 87.87109375 C20.89468219 98.66728351 6.6105265 100.99808039 -9.9375 99.5 C-22.4607888 96.66765375 -33.5292977 88.93883052 -40.9375 78.5 C-48.78288467 65.45228743 -51.33633785 51.20632869 -48.25390625 36.1640625 C-47.32411295 33.47113419 -46.25336224 31.02547474 -44.9375 28.5 C-44.28394531 27.21222656 -44.28394531 27.21222656 -43.6171875 25.8984375 C-34.75830259 9.87498993 -18.36837575 -0.36916519 0 0 Z " fill="#020303" transform="translate(359.9375,101.5)"/>
<path d="M0 0 C2.89974073 2.7171941 4.13245344 5.23360379 5.625 8.9375 C6.05039062 9.97777344 6.47578125 11.01804687 6.9140625 12.08984375 C11.30981063 23.86981626 10.39656046 38.39732216 5.6171875 49.88671875 C2.93714438 55.04612544 -0.30883436 59.52347997 -4 64 C-4.53238281 64.69480469 -5.06476563 65.38960938 -5.61328125 66.10546875 C-17.84877486 81.31634293 -37.03636631 90.50545551 -55 97 C-56.13179688 97.41378906 -57.26359375 97.82757813 -58.4296875 98.25390625 C-63.12837002 99.90246601 -66.97620107 101.23577396 -72 101 C-71.38125 99.2365625 -71.38125 99.2365625 -70.75 97.4375 C-67.60538412 87.95872928 -64.3569557 78.03937916 -64 68 C-63.97421875 67.34596191 -63.9484375 66.69192383 -63.921875 66.01806641 C-63.84059388 63.67869403 -63.79092212 61.34041192 -63.75 59 C-63.7284082 58.25194092 -63.70681641 57.50388184 -63.68457031 56.7331543 C-63.65207055 51.01632058 -64.92024103 46.30762018 -67 41 C-66.41323486 40.70456299 -65.82646973 40.40912598 -65.22192383 40.10473633 C-42.24277563 28.47573919 -20.91403019 14.97679911 0 0 Z " fill="#FC5148" transform="translate(370,292)"/>
<path d="M0 0 C0.88389404 0.00161133 1.76778809 0.00322266 2.6784668 0.00488281 C12.92711401 0.1952775 21.79082032 2.74460393 30.4375 8.375 C28.21072972 12.55019427 25.77449266 16.33643272 22.9375 20.125 C9.9678213 37.73188226 -0.38464006 57.07311847 -10.5625 76.375 C-11.11292969 76.1584375 -11.66335937 75.941875 -12.23046875 75.71875 C-30.46007472 69.61395172 -51.62696153 73.05578812 -68.5625 81.375 C-69.2225 81.375 -69.8825 81.375 -70.5625 81.375 C-68.08794807 62.43516022 -59.96591262 44.62374943 -48.5625 29.375 C-47.87671875 28.44429687 -47.1909375 27.51359375 -46.484375 26.5546875 C-34.95345964 11.664045 -19.3541756 -0.0365898 0 0 Z " fill="#FD5148" transform="translate(189.5625,132.625)"/>
<path d="M0 0 C2.63999106 2.01505015 4.95643059 4.32442055 7.3046875 6.66796875 C7.98806183 7.34040115 8.67143616 8.01283356 9.3755188 8.7056427 C10.81443545 10.12871234 12.24807645 11.55713351 13.67675781 12.99047852 C15.86920585 15.18170907 18.0893137 17.34197024 20.3125 19.50195312 C21.70751597 20.88883002 23.1008061 22.2774455 24.4921875 23.66796875 C25.49353226 24.63394234 25.49353226 24.63394234 26.5151062 25.61943054 C31.00380612 30.20006084 31.00380612 30.20006084 30.984375 34.28393555 C25.49839348 49.42072732 14.25432752 61.26252438 -0.11572266 68.14160156 C-15.18043664 75.00445908 -34.29936041 81.90273728 -51 81 C-51.35423081 73.98285642 -50.05723836 67.79595435 -48.375 61 C-48.10429688 59.8951123 -47.83359375 58.79022461 -47.5546875 57.65185547 C-41.5589391 33.86663827 -32.45208834 15.16194629 -11 2 C-6.78779747 -0.48247678 -4.67130865 -1.66823643 0 0 Z " fill="#FDDB77" transform="translate(169,313)"/>
<path d="M0 0 C-2.47684111 29.35241552 -7.5501533 59.03957122 -17 87 C-19.77726187 85.73000396 -21.82819324 84.42240446 -23.9866333 82.26733398 C-24.54746613 81.71214081 -25.10829895 81.15694763 -25.68612671 80.58493042 C-26.28889435 79.97811432 -26.89166199 79.37129822 -27.51269531 78.74609375 C-28.15701508 78.10527863 -28.80133484 77.4644635 -29.46517944 76.80422974 C-31.59121721 74.68698731 -33.70986473 72.56252158 -35.828125 70.4375 C-37.30185161 68.96512033 -38.77587504 67.49303769 -40.25018311 66.02124023 C-43.33672038 62.93765097 -46.419612 59.85047399 -49.5 56.76074219 C-53.45687687 52.79245105 -57.42269021 48.83323156 -61.39125443 44.87663269 C-64.43506975 41.84002756 -67.47412617 38.79869583 -70.51174164 35.75588989 C-71.97277581 34.29351793 -73.43530707 32.83264017 -74.89933014 31.3732605 C-76.93938125 29.33826292 -78.9729537 27.29700916 -81.00488281 25.25390625 C-81.92117966 24.3436821 -81.92117966 24.3436821 -82.85598755 23.41506958 C-87 19.22853029 -87 19.22853029 -87 17 C-26.10624609 -0.41289744 -26.10624609 -0.41289744 0 0 Z " fill="#FC5148" transform="translate(491,21)"/>
<path d="M0 0 C3.03864948 1.35955257 5.13487937 2.88690128 7.48016357 5.23965454 C8.1503804 5.90712204 8.82059723 6.57458954 9.51112366 7.26228333 C10.2354509 7.99380112 10.95977814 8.72531891 11.70605469 9.47900391 C12.47717087 10.24982803 13.24828705 11.02065216 14.04277039 11.81483459 C16.59057438 14.364032 19.13122091 16.92024072 21.671875 19.4765625 C23.43692138 21.24533896 25.20240982 23.01367439 26.96832275 24.78158569 C31.1403491 28.96046828 35.30789848 33.14378094 39.47330117 37.32926309 C44.68207257 42.56259635 49.89776266 47.78901743 55.11328125 53.015625 C64.41441813 62.33821267 73.70938262 71.66692946 83 81 C80.30655228 83.87788035 78.05672765 84.91101705 74.30078125 86.19140625 C73.17349609 86.57876953 72.04621094 86.96613281 70.88476562 87.36523438 C69.70591797 87.76033203 68.52707031 88.15542969 67.3125 88.5625 C66.15298828 88.96146484 64.99347656 89.36042969 63.79882812 89.77148438 C45.5460335 95.98718874 45.5460335 95.98718874 39 94 C32.56202633 89.2193337 26.97974799 83.14030094 21.3203125 77.48828125 C19.97935013 76.15231148 19.97935013 76.15231148 18.61129761 74.78935242 C16.73596242 72.91905134 14.86177512 71.04767516 12.98925781 69.17456055 C10.59364637 66.77884671 8.19117873 64.3901347 5.78697395 62.0030489 C3.48109603 59.71095591 1.18240005 57.41168249 -1.1171875 55.11328125 C-1.97859344 54.25906082 -2.83999939 53.40484039 -3.72750854 52.5247345 C-4.52238678 51.72677963 -5.31726501 50.92882477 -6.13623047 50.10668945 C-6.8360202 49.40832474 -7.53580994 48.70996002 -8.25680542 47.99043274 C-11.17818339 44.65471427 -12.00594295 42.80060009 -11.97265625 38.31640625 C-10.90192317 30.62258192 -7.95915429 23.25381603 -5.4375 15.9375 C-4.91127076 14.3889566 -4.38587276 12.84013047 -3.86132812 11.29101562 C-2.58378787 7.52401266 -1.29502926 3.76102455 0 0 Z " fill="#FC5148" transform="translate(184,245)"/>
<path d="M0 0 C7.10886201 4.791373 12.58485879 9.82741548 14.953125 18.31640625 C16.38028374 27.5684124 15.92199816 36.07102446 10.71484375 44.08203125 C4.99823276 51.33236714 -1.94727251 55.58205607 -11.2265625 56.69921875 C-20.97825978 57.0433963 -29.26477075 54.82673005 -36.51171875 48.09375 C-43.28368003 40.2534386 -44.61703372 32.25313396 -44.3828125 22.15234375 C-43.72629201 14.65579578 -40.67330891 9.52632671 -35.234375 4.44140625 C-33.86231834 3.36861519 -32.46701705 2.32468036 -31.046875 1.31640625 C-30.47582031 0.88199219 -29.90476562 0.44757813 -29.31640625 0 C-21.41880023 -5.00356054 -8.02529095 -4.3955315 0 0 Z " fill="#7AD6E6" transform="translate(375.046875,124.68359375)"/>
<path d="M0 0 C3.49890004 2.11391877 4.70578686 3.11736059 6 7 C6.50633602 10.22789214 6.82749915 12.76185188 4.93916321 15.58728027 C-5.32610049 26.86434132 -16.14843848 37.63566456 -26.87279224 48.47304535 C-30.74041278 52.38179381 -34.5975463 56.29978506 -38.43188477 60.24121094 C-42.15914744 64.07215777 -45.91038192 67.87801969 -49.67978477 71.66749573 C-51.10657473 73.11020119 -52.52470791 74.56152322 -53.93372536 76.02159119 C-55.90541687 78.06132557 -57.90642863 80.06727838 -59.91723633 82.06835938 C-60.487435 82.67293976 -61.05763367 83.27752014 -61.64511108 83.90042114 C-65.07433809 87.23644702 -67.40865314 88.38214059 -72.25126648 88.49963379 C-75.89523274 88.36949347 -76.91283867 88.05870049 -80.0625 85.9375 C-82.39595144 82.39968652 -83 80.2362654 -83 76 C-80.88099968 70.58010335 -77.52830161 67.11149714 -73.46484375 63.10839844 C-72.80598175 62.44749207 -72.14711975 61.78658569 -71.46829224 61.10565186 C-69.29854105 58.93290364 -67.11826698 56.77106201 -64.9375 54.609375 C-63.42381472 53.0987489 -61.91072087 51.58752996 -60.39819336 50.07574463 C-57.23191715 46.9140645 -54.06080201 43.75735106 -50.88574219 40.60449219 C-46.81335246 36.56043248 -42.74973426 32.50770155 -38.68925476 28.45168686 C-35.56713149 25.33371685 -32.44218702 22.21858835 -29.31619263 19.10449982 C-27.81659563 17.6106038 -26.31746851 16.11623595 -24.81881714 14.6213913 C-22.72686309 12.53630073 -20.63156467 10.45463421 -18.53515625 8.37402344 C-17.91480499 7.75479004 -17.29445374 7.13555664 -16.65530396 6.49755859 C-16.08335297 5.93131775 -15.51140198 5.3650769 -14.92211914 4.78167725 C-14.42732559 4.28985836 -13.93253204 3.79803947 -13.42274475 3.29131699 C-9.16614898 -0.57207061 -5.49528211 -0.8001902 0 0 Z " fill="#000000" transform="translate(167,424)"/>
<path d="M0 0 C3.49890004 2.11391877 4.70578686 3.11736059 6 7 C6.50633602 10.22789214 6.82749915 12.76185188 4.93916321 15.58728027 C-5.32610049 26.86434132 -16.14843848 37.63566456 -26.87279224 48.47304535 C-30.74041278 52.38179381 -34.5975463 56.29978506 -38.43188477 60.24121094 C-42.15914744 64.07215777 -45.91038192 67.87801969 -49.67978477 71.66749573 C-51.10657473 73.11020119 -52.52470791 74.56152322 -53.93372536 76.02159119 C-55.90541687 78.06132557 -57.90642863 80.06727838 -59.91723633 82.06835938 C-60.487435 82.67293976 -61.05763367 83.27752014 -61.64511108 83.90042114 C-65.07433809 87.23644702 -67.40865314 88.38214059 -72.25126648 88.49963379 C-75.89523274 88.36949347 -76.91283867 88.05870049 -80.0625 85.9375 C-82.39595144 82.39968652 -83 80.2362654 -83 76 C-80.88099968 70.58010335 -77.52830161 67.11149714 -73.46484375 63.10839844 C-72.80598175 62.44749207 -72.14711975 61.78658569 -71.46829224 61.10565186 C-69.29854105 58.93290364 -67.11826698 56.77106201 -64.9375 54.609375 C-63.42381472 53.0987489 -61.91072087 51.58752996 -60.39819336 50.07574463 C-57.23191715 46.9140645 -54.06080201 43.75735106 -50.88574219 40.60449219 C-46.81335246 36.56043248 -42.74973426 32.50770155 -38.68925476 28.45168686 C-35.56713149 25.33371685 -32.44218702 22.21858835 -29.31619263 19.10449982 C-27.81659563 17.6106038 -26.31746851 16.11623595 -24.81881714 14.6213913 C-22.72686309 12.53630073 -20.63156467 10.45463421 -18.53515625 8.37402344 C-17.91480499 7.75479004 -17.29445374 7.13555664 -16.65530396 6.49755859 C-16.08335297 5.93131775 -15.51140198 5.3650769 -14.92211914 4.78167725 C-14.42732559 4.28985836 -13.93253204 3.79803947 -13.42274475 3.29131699 C-9.16614898 -0.57207061 -5.49528211 -0.8001902 0 0 Z " fill="#000000" transform="translate(87,424)"/>
<path d="M0 0 C3.5386994 1.65139305 4.81070153 2.71605229 7 6 C7.85292042 9.18380217 7.716699 11.79177581 7 15 C5.46563721 17.16101074 5.46563721 17.16101074 3.34863281 19.40429688 C2.52762085 20.27828125 1.70660889 21.15226562 0.86071777 22.05273438 C-0.09096974 23.03698246 -1.04464849 24.01930794 -2 25 C-2.51139023 25.52718628 -3.02278046 26.05437256 -3.54966736 26.59753418 C-7.75524079 30.92094188 -12.0068945 35.19779057 -16.265625 39.46875 C-17.26991169 40.47727776 -17.26991169 40.47727776 -18.294487 41.50617981 C-21.82483266 45.05139505 -25.35794747 48.59382134 -28.89355469 52.13378906 C-32.53739758 55.78315665 -36.17183827 59.44174352 -39.80426407 63.1024704 C-42.6113626 65.92817339 -45.42512799 68.74716473 -48.24077606 71.56434631 C-49.58447211 72.9110649 -50.92567155 74.26027938 -52.26428986 75.61204529 C-54.13045506 77.49525453 -56.00584226 79.36878377 -57.88378906 81.24023438 C-58.70523407 82.07550156 -58.70523407 82.07550156 -59.54327393 82.92764282 C-62.49128836 85.84381142 -64.9669843 87.90201171 -69 89 C-73.18110238 88.92533746 -75.43731429 88.37113313 -78.9375 86.0625 C-81.84877705 81.73969469 -81.92772323 78.08581934 -81 73 C-79.2756636 69.92139202 -76.97001775 67.68818096 -74.42236328 65.27124023 C-73.72331879 64.56912918 -73.02427429 63.86701813 -72.30404663 63.14363098 C-69.99920109 60.84064617 -67.66093467 58.57515987 -65.3203125 56.30859375 C-63.70874155 54.71314683 -62.09930306 53.11554327 -60.49191284 51.5158844 C-56.26321462 47.31962899 -52.00491843 43.15468665 -47.7401123 38.99517822 C-43.39712621 34.74757442 -39.08534367 30.46853656 -34.76953125 26.19335938 C-28.47332049 19.96851339 -22.16969916 13.75136343 -15.83642578 7.56420898 C-15.17036316 6.91026154 -14.50430054 6.25631409 -13.8180542 5.58255005 C-13.20948578 4.98980789 -12.60091736 4.39706573 -11.97390747 3.78636169 C-11.4447983 3.26931891 -10.91568913 2.75227613 -10.37054634 2.21956539 C-7.15912114 -0.63808554 -4.15179723 -0.28147778 0 0 Z " fill="#000000" transform="translate(81,339)"/>
<path d="M0 0 C2.75569447 2.18159145 4.43588747 3.87177494 6 7 C6.61284768 12.39305958 5.17450787 14.7138931 2 19 C-0.0402955 21.30118171 -2.19316912 23.47404266 -4.375 25.640625 C-4.98134277 26.24888123 -5.58768555 26.85713745 -6.21240234 27.48382568 C-7.48745282 28.76022997 -8.76500371 30.03414092 -10.04492188 31.30566406 C-12.00105786 33.25105205 -13.94624654 35.2069308 -15.890625 37.1640625 C-17.13477559 38.40689208 -18.37954613 39.64910144 -19.625 40.890625 C-20.20427246 41.47394592 -20.78354492 42.05726685 -21.38037109 42.65826416 C-24.988236 46.22457542 -27.69334108 48.69913145 -32.875 49.375 C-36.82171864 48.90139376 -38.90995187 47.44329387 -42 45 C-43.79845048 41.40309904 -43.66914789 37.91126999 -43 34 C-41.87036133 32.22875977 -41.87036133 32.22875977 -40.26953125 30.50390625 C-39.63418457 29.81683594 -38.99883789 29.12976563 -38.34423828 28.421875 C-33.90154672 23.83204994 -29.42599648 19.2786789 -24.90063477 14.77026367 C-23.17019863 13.04525287 -21.4452551 11.31487572 -19.72070312 9.58398438 C-18.62011271 8.48405367 -17.51921272 7.38443262 -16.41796875 6.28515625 C-15.90340622 5.76856949 -15.38884369 5.25198273 -14.85868835 4.71974182 C-10.12321827 0.01551447 -6.63493059 -1.05425495 0 0 Z " fill="#000000" transform="translate(238,410)"/>
<path d="M0 0 C5.57894737 3.15789474 5.57894737 3.15789474 7 6 C7.68526779 9.75339859 7.98242836 13.45958121 5.87036133 16.77124023 C5.3420874 17.34044189 4.81381348 17.90964355 4.26953125 18.49609375 C3.63418457 19.18316406 2.99883789 19.87023437 2.34423828 20.578125 C-2.09845328 25.16795006 -6.57400352 29.7213211 -11.09936523 34.22973633 C-12.82980137 35.95474713 -14.5547449 37.68512428 -16.27929688 39.41601562 C-17.37988729 40.51594633 -18.48078728 41.61556738 -19.58203125 42.71484375 C-20.09659378 43.23143051 -20.61115631 43.74801727 -21.14131165 44.28025818 C-24.58984451 47.706039 -26.4610867 49.16300547 -31.3125 49.375 C-35.14506165 49.35031361 -35.82418398 49.13918768 -39 46.625 C-41.90664016 42.81003479 -42.4628138 40.81326348 -42 36 C-39.15821172 31.11246654 -35.60236465 27.30894235 -31.625 23.359375 C-31.01865723 22.75111877 -30.41231445 22.14286255 -29.78759766 21.51617432 C-28.51254718 20.23977003 -27.23499629 18.96585908 -25.95507812 17.69433594 C-23.99894214 15.74894795 -22.05375346 13.7930692 -20.109375 11.8359375 C-18.86522441 10.59310792 -17.62045387 9.35089856 -16.375 8.109375 C-15.79572754 7.52605408 -15.21645508 6.94273315 -14.61962891 6.34173584 C-10.03743015 1.81231262 -6.76240509 -0.81148861 0 0 Z " fill="#000000" transform="translate(95,268)"/>
<path d="M0 0 C2.9375 2.4375 2.9375 2.4375 5 5 C5.495 5.495 5.495 5.495 6 6 C6.2809953 10.01296417 5.87188809 13.63248504 3.6875 17.05859375 C1.87622613 19.14239725 -0.02399166 21.07165049 -2 23 C-2.76699219 23.80179688 -3.53398437 24.60359375 -4.32421875 25.4296875 C-12.325 33.70818182 -12.325 33.70818182 -18.4375 34.375 C-22.59650212 33.9372103 -24.11736226 32.96742121 -27 30 C-28.29968824 26.10093529 -28.65515606 24.12748316 -28 20 C-25.34968963 16.31834713 -22.21465426 13.18977303 -19 10 C-18.24976563 9.22527344 -17.49953125 8.45054687 -16.7265625 7.65234375 C-7.75015443 -1.54096638 -7.75015443 -1.54096638 0 0 Z " fill="#070707" transform="translate(308,198)"/>
<path d="M0 0 C2.16015625 0.47265625 2.16015625 0.47265625 5.22265625 2.41015625 C7.82987325 6.53124118 8.19961479 9.72207302 7.16015625 14.47265625 C5.13010387 17.68144872 3.73716178 19.10193162 0 19.98046875 C-4.5043027 20.32637513 -6.32530335 19.89268923 -9.90234375 16.97265625 C-12.55549898 13.06225674 -12.57286273 10.0906758 -11.83984375 5.47265625 C-8.69040553 0.59610675 -5.54616529 -0.36110258 0 0 Z " fill="#040404" transform="translate(263.83984375,240.52734375)"/>
</svg>
